<?xml version="1.0" encoding="UTF-8"?>
<svg version="1.1" viewBox="0 0 2048 1293" width="228" height="144" xmlns="http://www.w3.org/2000/svg">
<path transform="translate(0)" d="m0 0h2048v1293h-2048z" fill="#FDFDFD"/>
<path transform="translate(989,98)" d="m0 0h50l35 3 30 5 37 8 33 9 29 10 26 11 29 14 24 13 23 14 17 12 21 16 11 9 14 12 7 7 8 7 17 17 7 8 12 14 13 17 10 13 13 20 9 15 10 18 13 26 13 32 10 30 8 29 7 34 4 31 2 25v53l-3 32-6 36-9 36-9 30-7 19-9 21-17 35-15 25-10 16-13 17-11 14-9 11-12 13-7 8-30 30-11 9-15 13-17 13-17 12-19 12-17 10-20 11-24 11-44 17-28 9-34 8-37 7-25 3-28 2h-30l-29-2-43-6-37-8-24-6-36-12-24-10-18-8-16-8-24-13-18-11-23-16-13-10-16-13-14-12-13-12-25-25-7-8-12-14-11-14-14-19-10-15-8-13-16-29-10-19-11-27-10-28-6-20-7-31-6-38-4-36v-38l3-36 5-37 6-31 8-30 11-31 11-26 12-25 13-23 13-21 8-11 12-17 11-13 9-11 9-9 3-4h2l2-4 16-16 8-7 14-13 14-11 17-13 19-13 20-13 19-11 22-12 26-12 28-11 28-9 42-10 33-6 36-4z" fill="#FCFDFD"/>
<path transform="translate(986,306)" d="m0 0h54l27 3 26 5 26 8 29 12 20 10 19 12 16 11 13 10 11 10 8 7 9 9 7 8 12 15 12 18 10 17 9 17 12 28 6 21 5 24 4 34v36l-4 36-4 19-7 24-12 28-8 16-10 17-12 17-9 11-9 10-29 29-14 11-17 12-15 9-16 9-31 13-22 8-23 6-23 4-32 3h-27l-30-3-26-5-24-7-30-12-20-9-19-11-24-16-10-8-10-9-16-15-13-13-9-11-10-13-10-15-11-19-10-21-8-22-9-32-4-27-2-23v-15l2-28 5-28 6-24 6-18 8-19 10-18 16-26 14-17 7-8 7-7 7-8 14-13 11-9 12-9 24-16 16-9 27-12 25-9 27-7 22-4z" fill="#DDE6EA"/>
<path transform="translate(989,98)" d="m0 0h50l35 3 30 5 37 8 33 9 29 10 26 11 29 14 24 13 23 14 17 12 21 16 11 9 14 12 7 7 8 7 17 17 7 8 12 14 13 17 10 13 13 20 9 15 10 18 13 26 13 32 10 30 8 29 7 34 4 31 2 25v53l-3 32-6 36-9 36-9 30-7 19-9 21-17 35-15 25-10 16-13 17-11 14-9 11-12 13-7 8-30 30-11 9-15 13-17 13-17 12-19 12-17 10-20 11-24 11-44 17-28 9-34 8-37 7-25 3-28 2h-30l-29-2-43-6-37-8-24-6-36-12-24-10-18-8-16-8-24-13-18-11-23-16-13-10-16-13-14-12-13-12-25-25-7-8-12-14-11-14-14-19-10-15-8-13-16-29-10-19-11-27-10-28-6-20-7-31-6-38-4-36v-38l3-36 5-37 6-31 8-30 11-31 11-26 12-25 13-23 13-21 8-11 12-17 11-13 9-11 9-9 3-4h2l2-4 16-16 8-7 14-13 14-11 17-13 19-13 20-13 19-11 22-12 26-12 28-11 28-9 42-10 33-6 36-4zm-6 53-37 3-24 4-30 7-30 8-26 9-24 11-32 16-11 6-17 11-23 16-11 9-14 11-10 9-8 7-26 26-9 11-9 10-13 17-14 21-10 17-11 20-15 33-9 23-9 30-8 37-5 35-2 24v44l3 29 5 29 7 33 6 22 9 26 12 28 8 16 10 19 14 23 13 18 20 25 14 15 23 23 8 7 10 9 14 11 17 13 15 10 24 14 22 12 30 14 23 9 33 10 32 8 35 6 26 3h63l31-3 41-7 36-9 36-12 21-9 33-16 19-11 22-14 18-13 14-11 15-13 16-15 22-22 8-10 13-16 13-18 11-17 11-19 14-27 9-20 12-34 10-35 6-28 4-28 2-23v-59l-3-30-5-30-7-28-12-36-8-21-10-21-13-23-8-14-13-19-14-19-9-11-11-12-7-8-23-23-8-7-14-12-13-10-17-12-15-10-15-9-21-12-25-12-29-11-25-8-34-9-31-6-37-4-15-1z" fill="#12294A"/>
<path transform="translate(1058,328)" d="m0 0h17l42 10 19 8 20 10 25 15 14 10 11 9 14 12 12 12 9 11 12 15 12 19 10 18 9 19 8 22 7 26 4 20 2 21v33l-3 26-6 26-9 29-10 25-10 19-9 14-9 12-7 9-9 11-11 12-14 14-3 2-5-1v-10l4-13 20-34 4-9v-6l-1-3 2-5 6-2h13v-2h2l1-3v-8l2-5-3-3-17-5-3-7-1-9v-138l1-48 3-5 16-4 2-3v-18l-27 1h-79l1 19 13 2 4 4 1 3v184l-1 15-1 3-5 2-6-1-3-16-5-5-13-5h-7l-4 2-1 3-4 2 2-5 2-4-1-5-7-8-4-3-5 1-2 4-15 15-10 7-14 7-15 4-9 1h-12l-12-2-12-5-9-6-7-7-8-14-5-15-4-20-1-12v-37l2-25 4-17 8-16 9-11 7-7 10-6 9-3 5-1h28l11 3 10 9 6 10 6 17 3 11 3 3h17l7 1 1-1v-42l-1-24-2-5-30-8-26-4-3-1-12-1 3-2 8-1 19 1 8-3 1-1 1-9 5-3 35-12 12-5 1-2-4-2-11-10-15-10-17-8-26-8-40-11-18-8h-4l24 10 8 4 2 2 1 8-3 9-12 12 2 4v9l-4 4-5-2-11-11-11-8-10-5-20-7-10-5-1-3 7-8 12-10 21-14 7-2 1-5-10-4-11-6 2-1v-4l10-3 18-2h21l3 3 13 2 16 6 9 4 12 6 13 5 5 5 3-1v-2l-5-2-17-8-16-8-22-9-10-3-1-2 7-1 9 2 13 2z" fill="#FDFDFD"/>
<path transform="translate(778,434)" d="m0 0h2l1 11 5 3-2-9 4 3 5 16 7 6 6 3 10 2 34 2 14 2 2 2-4 1h-82l-6 3v12l2 4 4 2 10 2 3 3 1 3v195l-2 7-5 2h-7l-8 4 1 10 2 7 2 1 99 1 2-1v-12l1-1v-5l-6-2-11-4-3-6-1-17v-23l1-84 1-34 2 4 2 20 1 3 5 2 7 10 5 3 5-5 3-11 4-9 6-13h2l2-7 3-4h2l-1 6-7 19-5 22-1 9v29l3 19 5 17 9 21 9 13 11 12 9 8 11 7 16 8 15 5 15 3 15 2 3 1 4 16 8 16 6 11 12 13 7 6 1 3v20l-2 33-1 23 1 1h6l6-1-5 5-19 3-11 1h-31l-27-3-26-5-23-6-17-6-24-11-20-10-14-9-14-10-13-10-11-10-7-6-7-8-8-8-9-11-12-16-9-15-12-23-10-23-8-24-4-20-3-26v-48l4-30 6-25 8-21 12-26 9-17 11-16z" fill="#FDFDFD"/>
<path transform="translate(1012,320)" d="m0 0 25 1 30 4 27 6 13 4-4 1-19-5-9-2h-16l-1 3h-2v2h-9l-6-2-12-1-1 1 18 6 25 11 16 8 11 6 1 3-4 1-5-5-20-8-8-4-18-8-7-2-10-1-3-3h-21l-23 3-5 1-1 5 7 3 1 2 10 3 3 2-2 5-12 6-17 12-11 9-6 7 1 3 17 7 17 6 11 7 13 12 4 4 4 1 3-3v-9l-2-4 12-12 3-9-1-8-4-3-17-7-12-5-2-3 9 2 15 7 54 15 19 7 15 8 12 9 11 10 2 1-1 3-23 9-27 9-1 1-1 9-6 4-10 1-14-1-7 1 9 1v1l-39 1-19 3-17 5-17 9-13 9-13 11-10 11-11 18-2 2-2-1-2 4-3 7h-2l-3 9-3 5-5 14-2 6-5 5-5-3-4-5-3-4v-2l-6-2-2-13-1-10-1 30-1 87v20l1 17 2 6 11 3 6 2 1 1v5l-1 1v12l-3 2-99-1-4-4-2-11 1-5 8-4h7l5-1 1-7v-195l-3-5-12-3-4-3-1-9v-6l4-3 3-1h83l1-1-14-2-36-2-11-3-9-7-3-5-4-13-2-2 1 8-5-2-1-1-1-13 11-13 15-16 13-13 14-11 17-12 17-10 19-9 21-9 21-7 30-7 19-3 11-1z" fill="#DDE6EA"/>
<path transform="translate(999,135)" d="m0 0h20l36 2 35 4 32 6 26 6 29 9 26 10 25 11 27 14 17 10 19 12 15 11 13 10 16 13 12 11 8 8 8 7 13 13 9 11 9 10 15 20 14 20 16 27 15 29 12 28 10 30 7 27 7 37 3 26 1 13v59l-2 28-4 28-6 26-8 28-10 28-12 27-11 23-13 23-12 19-12 17-14 19-8 10-12 13-27 27-8 7-14 12-14 11-14 10-15 10-19 12-28 15-24 11-42 15-30 9-37 8-35 5-28 2h-45l-26-2-40-6-25-5-29-8-34-12-28-12-26-13-23-13-18-12-11-7-13-10-20-16-14-12-17-17-8-7-11-12-18-22-10-13-16-24-10-16-12-22-15-31-9-24-10-30-8-32-4-22-3-25-1-13v-64l3-30 6-36 7-28 12-37 9-22 12-25 9-17 11-18 7-11 9-13 9-12 9-11 10-11 8-10 24-24 8-7 13-11 13-10 18-13 20-13 22-13 24-13 24-11 29-11 31-10 33-8 38-6 28-3zm-16 16-37 3-24 4-30 7-30 8-26 9-24 11-32 16-11 6-17 11-23 16-11 9-14 11-10 9-8 7-26 26-9 11-9 10-13 17-14 21-10 17-11 20-15 33-9 23-9 30-8 37-5 35-2 24v44l3 29 5 29 7 33 6 22 9 26 12 28 8 16 10 19 14 23 13 18 20 25 14 15 23 23 8 7 10 9 14 11 17 13 15 10 24 14 22 12 30 14 23 9 33 10 32 8 35 6 26 3h63l31-3 41-7 36-9 36-12 21-9 33-16 19-11 22-14 18-13 14-11 15-13 16-15 22-22 8-10 13-16 13-18 11-17 11-19 14-27 9-20 12-34 10-35 6-28 4-28 2-23v-59l-3-30-5-30-7-28-12-36-8-21-10-21-13-23-8-14-13-19-14-19-9-11-11-12-7-8-23-23-8-7-14-12-13-10-17-12-15-10-15-9-21-12-25-12-29-11-25-8-34-9-31-6-37-4-15-1z" fill="#132A4B"/>
<path transform="translate(1e3 123)" d="m0 0h26l45 3 35 5 39 9 35 11 21 8 21 9 30 15 24 14 17 11 17 12 14 11 17 14 11 11 8 7 7 7 7 8 8 8 9 11 13 16 13 18 17 26 10 17 13 25 11 25 9 24 7 21 6 24 4 18 6 40 2 33v25l-2 43-4 29-6 29-9 31-9 25-12 29-11 23-12 22-14 22-14 21-13 17-11 14-10 11-7 8-18 18-8 7-14 13-17 13-19 14-17 11-22 13-17 9-31 14-32 12-35 10-33 8-27 5-33 4-15 1h-48l-28-2-34-6-28-6-31-8-36-12-30-13-19-9-23-13-21-13-17-12-12-9-11-9-10-9-11-9-15-14-19-19-9-11-10-11-15-20-13-19-9-15-10-18-14-27-14-33-9-25-8-30-9-44-4-30-1-23v-23l2-34 4-32 6-33 8-31 13-37 9-20 8-17 12-21 6-11 9-14 14-20 11-14 12-14 13-15 8-8 7-8 13-12 14-13 11-9 17-13 27-18 24-14 25-13 32-14 28-10 35-10 31-7 29-4 38-3zm-6 12-34 2-37 5-26 5-31 8-38 13-26 11-23 11-23 13-21 13-12 8-18 13-14 11-14 12-15 14-18 18-8 10-10 11-7 9-8 11-7 10-9 14-8 13-12 22-14 29-10 27-9 28-7 28-6 36-3 30v64l3 29 4 26 6 26 8 26 5 15 10 26 16 33 10 18 8 13 12 18 12 17 10 12 9 11 11 12 7 8 12 11 13 13 22 18 13 10 17 12 24 15 25 14 24 12 27 11 34 12 34 9 49 8 17 2 17 1h45l28-2 35-5 41-9 38-12 32-12 24-11 28-15 17-11 12-8 17-12 17-14 11-9 17-16 26-26 9-11 15-20 12-17 12-19 12-21 12-23 16-37 12-36 8-31 5-29 2-20 1-17v-59l-3-32-5-29-6-27-8-28-10-27-11-24-14-27-16-26-12-17-13-17-12-14-9-11-18-18-8-7-10-10-11-9-15-12-15-11-18-12-20-12-28-15-19-9-28-11-30-10-28-7-31-6-30-4-23-2-24-1z" fill="#FAFBFB"/>
<path transform="translate(986,306)" d="m0 0h54l27 3 26 5 26 8 29 12 20 10 19 12 16 11 13 10 11 10 8 7 9 9 7 8 12 15 12 18 10 17 9 17 12 28 6 21 5 24 4 34v36l-4 36-4 19-7 24-12 28-8 16-10 17-12 17-9 11-9 10-29 29-14 11-17 12-15 9-16 9-31 13-22 8-23 6-23 4-32 3h-27l-30-3-26-5-24-7-30-12-20-9-19-11-24-16-10-8-10-9-16-15-13-13-9-11-10-13-10-15-11-19-10-21-8-22-9-32-4-27-2-23v-15l2-28 5-28 6-24 6-18 8-19 10-18 16-26 14-17 7-8 7-7 7-8 14-13 11-9 12-9 24-16 16-9 27-12 25-9 27-7 22-4zm26 14-25 1-24 3-28 6-20 6-16 6-14 6-21 10-15 9-17 12-11 9-10 9-15 15-7 8-10 12-12 16-10 16-12 23-11 26-5 15-5 21-4 30v48l3 26 4 20 9 27 12 26 11 21 10 15 10 13 12 14 10 10 6 7 11 9 8 7 18 13 14 9 23 12 19 9 19 7 17 5 29 6 21 3 12 1h31l24-3 36-7 22-6 24-9 16-8 19-10 17-12 10-8 14-12 19-19 9-11 8-10 13-18 9-15 9-17 10-26 8-26 6-26 3-26v-33l-2-21-6-28-8-27-10-24-12-23-12-19-10-13-11-13-9-10-8-8-11-9-12-10-16-11-19-11-23-12-19-8-31-9-25-5-24-3z" fill="#0E1931"/>
<path transform="translate(1011,468)" d="m0 0h42l26 4 30 8 2 2 1 4 1 24v42l-2 2-7-1h-17l-4-4-7-23-7-14-7-7-9-4-5-1h-28l-12 3-9 5-10 9-8 10-8 16-4 17-2 25v37l2 18 5 21 7 16 7 9 8 7 13 6 7 2 8 1h12l14-2 15-5 14-8 13-12 12-12 5 2 8 8 2 3-1 6-8 12-9 10-8 8-11 8-12 7-13 5-14 3-10 1h-25l-21-3-16-5-15-7-11-6-13-11-9-9-10-14-8-16-7-21-3-15-1-8v-29l3-19 4-15 8-21 8-14 7-9 11-12 15-12 15-9 13-6 19-5z" fill="#12294A"/>
<path transform="translate(989,98)" d="m0 0h50l35 3 30 5 37 8 33 9 29 10 26 11 29 14 24 13 23 14 17 12 21 16 11 9 14 12 7 7 8 7 17 17 7 8 12 14 13 17 10 13 13 20 9 15 10 18 13 26 13 32 10 30 8 29v7l-2-3-4-14-6-20-1-4-10-26-6-12-1-6-3-1-7-14-1-5 1-2-10-20-8-14-2 2-9-13-11-17-6-8 2 6-1 4-5-5-7-10v-2h-2l-4-5v-2h-2l-6-8v-2l-4-2-7-7-7-8-7-7v-2l-4-2-5-5 2 5 10 10 7 8 8 9v2l3 1 2 5h2l8 12 10 12 6 8 9 15 5 10h-2l-12-18-4-4-6-10-2-1 4 6-1 2-10-13-9-12-9-11-12-14-10-10-7-8-17-16-10-9-14-11-13-10-13-9-22-14-14-8-18-10-16-7-8-4-19-8-34-12-25-7-31-7-35-5-45-3h-26l-37 2-40 4-31 6-30 8-29 9-28 11-30 14-22 12-5 3h-2v-2l-6-1-2 2-2 5-7 1-5 1-7 4v3l-5 1-2 4-9 7-5 1-1-3 1-4 1-2-18 12-8 7h-2v2l-11 9-12 11-4 5-8 7-6 6h-2l2-4 12-13 10-9 12-11 11-9 13-10 9-7 17-12 18-12 16-10 12-7h3v-2l2-1h-3l-3 3-6 1v-2l24-13 26-12 28-11 28-9 42-10 33-6 36-4z" fill="#12294A"/>
<path transform="translate(1224,476)" d="m0 0h27l1 5v13l-3 4-16 4-2 4-1 48v138l2 12 1 3 17 5 4 4-2 6v7l-4 4-61-1h-36l-6-1-1-8 1-10 4-3 13-3 1-18v-184l-1-5-14-3-3-3-1-15 1-2z" fill="#12294A"/>
<path transform="translate(777,476)" d="m0 0h35l66 1 1 1v8l-2 7-7 4-10 2-1 13v172l1 17 2 6 11 3 6 2 1 1v5l-1 1v12l-3 2-99-1-4-4-2-11 1-5 8-4h7l5-1 1-7v-195l-3-5-12-3-4-3-1-9v-6z" fill="#12294A"/>
<path transform="translate(606,366)" d="m0 0h2l-1 4-8 14-6 12-1 5-4 5-1 3h-2l-1 5-9 20-11 29-7 25-4 21-3 28-2 11-2 23v50l2 18 5 35 8 39 7 26 9 26 12 28 8 16 10 19 14 23 13 18 20 25 14 15 22 22 8 7 10 9 14 11 17 13 15 10 24 14 22 12 30 14 23 9 33 10 32 8 35 6 26 3h63l31-3 41-7 36-9 36-12 21-9 33-16 19-11 14-9 3 1-1 1 2 2-8 7 6-3h2v2l-14 9-15 9-32 16-10 7-5 1v2l-30 11-36 11-37 8-35 5-28 2h-45l-26-2-40-6-25-5-29-8-34-12-28-12-26-13-23-13-18-12-11-7-13-10-20-16-14-12-17-17-8-7-11-12-18-22-10-13-16-24-10-16-12-22-15-31-9-24-10-30-8-32-4-22-3-25-1-13v-64l3-30 2-14 1-2h2v-2h2v-2h3l-1-8 1-6-1-5 2-13h2l1-4h2v-2l4-3 8-21 5-15 3-7 2-8 8-18 6-11 7-13 6-13 5-4z" fill="#142B4C"/>
<path transform="translate(1564,1082)" d="m0 0 19 1 14 4 12 7 9 9 9 14 5 13 2 14-1 19-3 12-8 16-8 10-11 9-15 7-13 3h-28l-16-5-10-6-10-9-8-10-5-10-3-11-1-7v-18l3-15 7-16 8-11 7-7 14-8 11-3z" fill="#12294A"/>
<path transform="translate(1372,259)" d="m0 0 7 6 17 17 7 8 5 5 5 6v2h2l4 5v2h2l7 11 5 5v-5l-2-5 5 5 7 10 9 14 6 9 2-2 12 21 7 14-1 4 4 9 4 8 4 4 1 6 4 6 8 21 2 5v3l2 1 2 10 4 13 4 14 2 1 6 29 4 31 2 25v53l-3 32-6 36-9 36-9 30-7 19-9 21-17 35-15 25-10 16-13 17-5 7-1-2-5 1-2-1-1 4h-2l-2 4-4 1-1 3v-2l-3 1-1-3 4-8-4-2-2 4-5 6-10 10-4 2-6 5 2-4 9-10 8-10 12-16 10-14 14-22 9-15 15-28 12-27 10-26 9-27 6-22 7-37 2-17 2-43v-25l-2-33-7-46-11-43-10-28-11-26-9-19-12-22-11-18-10-15-3-7-2-4 4 2 3 5v3l3 1 6 8 8 12 1 3v-3l-7-12-6-10-8-10-11-14-4-6v-2h-2l-3-5-5-5-12-13-7-8-6-7z" fill="#253B5F"/>
<path transform="translate(1365,1084)" d="m0 0h72l12 3 11 6 6 7 5 10 1 4v15l-5 10-5 6-16 6 2 5 9 14 11 18 9 12 12 12 1 7-34 1-7-3-7-6-9-14-13-24-6-8-7-5h-5l-1 33 2 6 10 4 5 10v4l-7 2h-27l-27-1-5-2v-7l2-5 10-3 2-2 1-31-1-60-2-5-5-3-5-5-2-4v-5l1-1z" fill="#12294A"/>
<path transform="translate(270,183)" d="m0 0h52l5 2-5 10-7 8-1 8v27l3 1h40l2-1v-15l-1-18-2-4-6-4-5-6-3-7 3-1h60l4 1-2 10-4 4-5 2-2 4v97l4 5h5l4 10-1 2-3 1-12 1h-40l-6-3 1-8 9-7 1-2 1-21v-16l-1-4-3-1h-39l-2 1v37l1 7 9 9 1 4-4 3h-56l-3-2v-7l6-4 5-1 1-9 1-97-12-1-3-10v-4z" fill="#12294A"/>
<path transform="translate(1073,311)" d="m0 0 11 1 19 5 21 7 26 11 23 12 23 15 19 14 12 11 8 7 9 9 7 8 12 15 12 18 10 17 9 17 12 28 6 21 5 24 4 34v36l-4 36-4 19-7 24-12 28-8 16-10 17-12 17-9 11-9 10-29 29-14 11-17 12-15 9-16 9-5 1-1-2 7-5 12-5 7-5 9-5 5-3 5-5 9-7 8-7-2-8v-5l20-20 9-11 8-10 13-18 9-15 9-17 10-26 8-26 6-26 3-26v-33l-2-21-6-28-8-27-10-24-12-23-12-19-10-13-11-13-9-10-7-7-11-9-12-10-16-11-19-11-23-12-19-8-31-9-25-5-24-3-25-1-25 1-24 3-28 6-8 1 3-2 23-6 20-3 23-2h32l28 3 27 5 4 1h13l2-1v-2l-10-3-11-4-6-5z" fill="#132A4B"/>
<path transform="translate(1801,1084)" d="m0 0h68l13 2 13 5 9 8 5 8 4 12v11l-4 11-6 8-9 8-12 6-9 2-16 1h-15v26l2 7 5 3 6 3 3 5 1 5-7 3h-53l-8-2 1-6 4-6 7-5 1-2 1-14v-81l-7-2-3-9v-5z" fill="#12294A"/>
<path transform="translate(987,125)" d="m0 0h50l24 2 31 4 4 2 10 1 15 3 11 4 7 2v2h7v-2l6-1 7 2 11 2 34 12 23 10 30 15 24 14 17 11 17 12 14 11 17 14 11 11 8 7 7 7 7 8 8 8 9 11 13 16 13 18 17 26 10 17 13 25 11 25 9 24 7 21 5 20 5 34v24l-1 10v27l-2 2-1-1-2-30v-9l2 3 1-8-1-2-1 5h-2l-2-6-5-29-6-27-8-28-10-27-11-24-14-27-16-26-12-17-13-17-12-14-9-11-17-17-8-7-10-10-11-9-15-12-15-11-18-12-20-12-28-15-19-9-28-11-30-10-28-7-31-6-30-4-23-2-24-1h-20l-34 2-37 5-26 5-31 8-38 13-21 9-4-1 4-4 21-11 13-7 19-3 14-5 17-4 10-6 10-2 13-1 14-5 26-3z" fill="#FAFBFB"/>
<path transform="translate(1276,1083)" d="m0 0h27l23 4 5 3 2 12v17l-1 10-1 2-10-2-14-22-6-4-9-3h-16l-9 5-7 8-5 11-3 13-1 17 2 16 4 12 6 9 6 5 11 4h12l5-5 1-2v-17l-4-6-9-7-2-5v-5l1-1 14-1h44l4 5 1 5-3 5-7 3-2 4v31l-2 5-5 4-12 5-20 4h-18l-19-3-12-5-11-6-10-9-7-10-5-11-3-12v-21l3-15 5-12 8-13 9-10 16-8 13-3z" fill="#12294A"/>
<path transform="translate(433,183)" d="m0 0h101v14l-1 21-1 4h-6l-5-4-5-12-6-4-8-2h-27v39l2 1 12-1 10-5 7-7h5l2 2v30l-1 9-2 3-7-1-4-5v-3l-5-2-12-4-7-1v48l2 1 27-1 12-3 5-4 5-8 5-10 3-2h5l1 1 1 23-1 17-1 2-54 1h-20l-34-1-5-2v-9l4-3 6-2 1-2 1-49v-49l-1-4-10-2-3-6-1-7z" fill="#12294A"/>
<path transform="translate(1762,1083)" d="m0 0 17 1 2 1v7l1 4-6 5-6 3v69l-2 15-4 10-10 11-12 7-9 3-6 1h-27l-16-4-13-8-8-10-5-12-1-5-1-66-1-10-2-3-9-4-3-6v-6l4-1 52-1 8 1 1 5-4 6-6 5-3 9v71l3 9 5 6 8 3 5 1h11l9-3 8-5 4-8 2-12v-66l-2-3-7-4-4-5-1-8 4-2z" fill="#13294B"/>
<path transform="translate(1489,544)" d="m0 0h2l1 2 2 24v59l-2 28-4 28-6 26-8 28-10 28-12 27-11 23-13 23-12 19-12 17-14 19-8 10-12 13-27 27-8 7-14 12-14 11-14 10-15 10-19 12-28 15-24 11-6 1 2-2 6-3 7-5 16-8 25-13 15-10 5-2v-2l-7 4-2-1 4-2 2-4 1-5 4-4 16-11 18-14 15-13 16-15 21-21 8-10 13-16 13-18 11-17 11-19 14-27 9-20 12-34 10-35 6-28 4-28 2-23v-83l6 2 5-1z" fill="#0F1C34"/>
<path transform="translate(173,182)" d="m0 0h51l24 1 1 20v15l-2 5-9-1-4-5-5-10-5-4-8-2-16-1v90l1 12 2 2 10 3 4 5-1 4-8 2h-53l-4-3v-6l5-4 7-2 1-30v-69l-1-4-14 1-9 2-7 6-7 13-5 2h-5l-2-3 1-22 2-16z" fill="#12294B"/>
<path transform="translate(986,306)" d="m0 0h54l27 3 6 2 6 4v2l11 3 7 2v2l5 1 1 3-3 1h-13l-25-5-22-3-12-1h-32l-31 3-20 4-15 4h-3v2l-15 5-18 7-12 5-16 8-22 13-17 13-13 11-17 17-7 8-10 12-12 16-10 16-12 23-11 26-5 15-5 21-1 6h-1v-19l1-3h2l-1-4 1-3h2v-8l5-17 6-13 3-7 11-20 7-11 6-7 4-8 9-10 3-2v-9l-4 2-3 6h-2v2l-4 3-4 8h-2v2l-7 6-4 7-4 15-3 4-4 1-2 5h-2v6h-2l-1 5-5 12-2 10-3 9-3 11-2 7-2 14-2 4-2 17 1 6 1 10-1 35-3 7-3-4v-8l-1-7-1-4-1 5v9l2 15 2 21v7h-1l-4-27-2-23v-15l2-28 5-28 6-24 6-18 8-19 10-18 16-26 14-17 7-8 7-7 7-8 14-13 11-9 12-9 24-16 16-9 27-12 25-9 27-7 22-4z" fill="#0F1C34"/>
<path transform="translate(999,135)" d="m0 0h20l36 2 35 4 32 6 26 6 26 8 2 5 4 2v2l2 1-1 2-12-2-24-5-13-4-28-6-31-6-24-3-19-2h-41l-36 3-8 1v2l-16 4-12 2-18 2-24 8-18 5-11 4-15 6-13 5h-2v2l-34 16-14 8-21 13-16 11-17 12-9 7-9 6-5 6-5 5h-2l-1 2v-2l-6 2-9 9h-2v2l-6 5-1 2h-2v2h-2v2h-2v2h-2l-2 4-11 12-1 2h-2l-2 4-6 7h-2v2h-3v2h-2l-2 5-2 1-2-2 11-15 9-11 10-11 8-10 24-24 8-7 13-11 13-10 18-13 20-13 22-13 24-13 24-11 29-11 31-10 33-8 38-6 28-3z" fill="#0E1A32"/>
<path transform="translate(1273,981)" d="m0 0 3 1-1 1 2 2-8 7 6-3h2v2l-14 9-15 9-32 16-10 7-5 1v2l-30 11-36 11-37 8-35 5-28 2h-45l-26-2-40-6-25-5-29-8-34-12-28-12-2-1-3-6 2-4 9 3 21 10 20 7 14 3h7l5 2 3 3 13 1 6 2h11l32 6 33 4h63l31-3 41-7 36-9 36-12 21-9 33-16 19-11z" fill="#101D36"/>
<path transform="translate(989,144)" d="m0 0h43l35 4 23 4 28 6 21 5 10 3 1 3 12 2 15 6 8 3-3 1-28-9-34-9-31-6-37-4-15-1h-54l-37 3-24 4-30 7-30 8-26 9-24 11-32 16-11 6-17 11-23 16-11 9-14 11-10 9-8 7-25 25-9 11-9 10-13 17-14 21-10 17-11 20-15 33-9 23-9 30-8 37-5 35-2 24-1 39h-1v-50l2-23 2-11 4-34 5-22 7-24 12-30 8-18h2l1-4 4-6 1-5 8-16 6-9 1-3-5 5-4 3-5 12-7 13-8 15-7 17-3 11-4 9-5 16-6 13-4 2v2h-2l-1 4h-2l-1 17 1 2-1 8 1 3-1 2h-3v2h-2v2h-2l1-10 7-31 9-29 7-20 10-24 14-28 11-19 9-14 8-12h4l3-5h2v-2h3v-2l6-5 4-6h2l2-4 11-12 1-2h2v-2h2v-2h2v-2h2l2-4 3-3h2v-2l8-7 4-4h6l8-7 6-7 4-2 2-2 6-4 18-13 24-16 13-8 17-10 25-12 9-3v-2l17-7 16-6 21-7 13-3 10-4 12-3 18-2 22-4v-2l8-2z" fill="#253B5F"/>
<path transform="translate(1e3 123)" d="m0 0h26l45 3 35 5 39 9 13 4-4 1-7-2h-6v2h-7l-12-5-11-3-14-3h-8l-2-2-39-5-16-1h-50l-28 2-16 2-9 3-5 2-13 1-12 3-8 5-20 5-11 4-19 3-36 19-1 4-25 12-23 13-21 13-12 8-18 13-14 11-14 12-15 14-17 17-8 10-10 11-7 9-8 11-7 10-9 14-8 13-12 22-2-1-5 2-1-10-2-1 8-14 6-11 9-14 14-20 11-14 12-14 13-15 8-8 7-8 13-12 14-13 11-9 17-13 27-18 24-14 25-13 32-14 28-10 35-10 31-7 29-4 38-3z" fill="#DDE6EA"/>
<path transform="translate(1563,1098)" d="m0 0 9 1 10 5 7 9 5 12 2 11v22l-2 13-4 12-5 9-8 7-8 3h-14l-9-4-7-8-5-10-2-9-1-9v-22l3-17 6-12 8-8 8-4z" fill="#FCFDFD"/>
<path transform="translate(270,183)" d="m0 0h52l-1 5-4 7-2 4-2 3h-2l-1 2-3 4-3 11v20l3 1 2 7v9l2 3 2 36 1 1 1 7 9 9 1 4-4 3h-56l-3-2v-7l6-4 5-1 1-9 1-97-12-1-3-10v-4z" fill="#12294A"/>
<path transform="translate(520,690)" d="m0 0h2l3 5 2 6v4l3-1 8 32 8 24 11 27 11 24 13 25 10 17 11 17 13 18 11 14 9 10 9 11 26 26 11 9 12 11 11 9 13 10 23 16 27 16 24 13 25 11 20 8 30 10 44 11 36 7 13 2 28 2h48l34-3 20-3h6l-3 2h-6v2h-2v2h-7l-4 2-7-1-1 2h-4l-13 2-6 1h-2l-10 1-5-1-9 1-29-3-19-1-14-2h-13l-18-3-12-4-17-3-9-2-8-3-16-4-16-5-20-7-17-7-15-7-17-8-10-6-11-6-14-8-9-6-5-2v-2h-2v-2l-5-2-4-3v-2l-4-1v-2l-5-2-14-10h-3l-2-4-8-7-4-4-3-1-4-5v-2h-2l-7-8-20-20-1 2-4-2v-2l-3-1v-2h-2v-2h-2l-6-8-5-5-11-14v-2h-2l-1-7h-3l-4-6v-3h-3l-2-6-3-1-5-11-1-4-4-1-3-3-2-5-1-4h-2l-5-13-3-9h-2l-1-5h-2l-3-10-4-10-5-3-2-4v-3h-2l1-4h-2l-2-9-2-4-3-13-5-12v-7l-1-3-2-10-2-7-3-15z" fill="#253B5F"/>
<path transform="translate(1185,238)" d="m0 0h17l12 4 9 7 7 11 1 3v17l-3 11-10 12-8 6-10 1-4 1h-9l-1-2-3 1-7-3-9-6-8-9-4-8-1-8 4-17 5-8 9-8 9-4z" fill="#132A4B"/>
<path transform="translate(1494,493)" d="m0 0 2 3 5 27 4 28 2 33v25l-2 43-4 29-6 29-9 31-9 25-12 29-11 23-12 22-14 22-12 18-5-3-3-3-6 5 2-4 18-27 14-24 13-25 16-37 12-36 8-31 5-29 2-20 1-17v-59l-2-24v-7h1v5h2l1-8h1l1 9-2 6-1 4 2 30 1-1v-31l1-12v-18l-4-26z" fill="#F9FBFB"/>
<path transform="translate(824,903)" d="m0 0 5 1 10 6 9 6 12 5 3 3 6 23 3 13 1 5h3l2-5 3-6 3-22 8 1 11 5 13 4 6 3-1 10v16l3 9h2l8-8 4-7 2-16 9 1 6 2-1 4-7 8-6 10-9 11-12 13-4 3h-5l-2-2-7-56-4-2-4 1-4 4-5 13-6 11-2 9-5 8h-6l-5-4-7-36-3-6-6 8-3 10-1 14-1 3h-6l-10-6 6-7 9-16 6-11 2-4 1-10-4-4-8 1-7 14-5 12-4 8-1 3v11l-9-4-10-5-5-2 2-6 7-5 10-18 7-14z" fill="#142A4B"/>
<path transform="translate(1073,311)" d="m0 0 11 1 19 5 21 7 26 11 23 12 23 15 19 14 12 11 8 7 9 9 7 8 12 15 12 18 10 17 9 17 10 24-1 2-2-3v-3l-4-2-11-18-5-5-6-12-9-15-6-7-5-5v-2h-2v-3h-2v-2l-3-1-5-5h-2v-2l-4-2v-4l-3 1-4-4v-2h-2v-2l-5-2-6-6-4-1-10-9-16-12-14-9-21-12-22-11-17-6-23-7-29-6-24-3-25-1-25 1-24 3-28 6-8 1 3-2 23-6 20-3 23-2h32l28 3 27 5 4 1h13l2-1v-2l-10-3-11-4-6-5z" fill="#142B4C"/>
<path transform="translate(606,366)" d="m0 0h2l-1 4-8 14-6 12-1 5-4 5-1 3h-2l-1 5-9 20-11 29-7 25-4 21-3 28-2 11-2 23v50l2 18 1 33-2 15 2 21 4 7 2 16-2 2-5-4-7-26-6-31-3-25-1-13v-64l3-30 2-14 1-2h2v-2h2v-2h3l-1-8 1-6-1-5 2-13h2l1-4h2v-2l4-3 8-21 5-15 3-7 2-8 8-18 6-11 7-13 6-13 5-4z" fill="#0E1A32"/>
<path transform="translate(1762,1083)" d="m0 0 17 1 2 1v7l1 4-6 5-6 3v69l-2 15-4 10-10 11-9 5-7-1-15 1-8-1v-5l5-2-1-4 16-2 9-4 3-5-1-7 2-12v-66l-2-3-7-4-4-5-1-8 4-2z" fill="#12294A"/>
<path transform="translate(1337,785)" d="m0 0 10 1 10 4 8 7 5 13 2 7-1 9-6 10-7 6-8 3h-15l-11-4-8-7-5-6-3-12v-13l6-11 5-3 10-3z" fill="#253B5F"/>
<path transform="translate(764,869)" d="m0 0 12 1 10 5 6 5 5 8 1 10-3 10-6 11-14 9-6 2-13-1-10-6-9-9-4-11 1-9 8-15 5-4 12-5z" fill="#142B4C"/>
<path transform="translate(506,227)" d="m0 0h5l2 2v30l-1 9-2 3-7-1-4-5v-3l-5-2-12-4-7-1v48l2 1 27-1 12-3 5-4 5-8 5-10 3-2h5l1 1 1 23-1 17-1 2-54 1h-20l-34-1-5-2v-9l4-3 6-1-2 6-3 2-4-2 1 5 3 1-1-3h13l9 2h14l6-2 1-9-1-10v-46l2-5 3-2 15-3 8-5z" fill="#253B5F"/>
<path transform="translate(1254,271)" d="m0 0 4 1 11 7 3 5 1 46 2 6 6-8 8-9 3-7v-9l2-2 11 6 6 4-1 4-12 9-19 19-7 8-8 11-4 1-4-2-2-4-1-8 1-39 1-14-4 4-4 6-10 10-4 6-1 5 1 3v8l-5-2-15-9 2-5 14-11 21-27 3-12z" fill="#12294A"/>
<path transform="translate(1365,1084)" d="m0 0h72l12 3 11 6 2 3-5 1-4-2-5 1-9-5v2h-2v2l-5 2-1 4h-5l-1 2 5 5 3 7 1 10-2 9-8 7-7 3h-13l-2-2-1-10-1-27 4-12h-11l-23 1v46l-1 58-1 2-2-1 1-31-1-60-2-5-5-3-5-5-2-4v-5l1-1z" fill="#253B5F"/>
<path transform="translate(1232,186)" d="m0 0 6 2 26 14 24 15 17 12 14 11 16 13 12 11 8 8 8 7 13 13 9 11 9 10 15 20 14 20 16 27 15 29 12 28 10 30 7 27-1 4-1-3-2 7h-2l-3-3-2-7-2-8-1-13v-2l-2-1-4-12-3-7v-4h-2l-4-12-4-10-3-6-1-6h-2l-3-8-2-5-7-13-7-11-1-3-5-4-4-10-2-1-5-10-4-4v-2l-3-1-4-6v-2h-2v-2l-3-1-4-6v-2l-3-1v-2h-2l-4-9-2-5 1-2h-2v-2h-3v-2h-2l-6-8-12-12v-2l-4-2v-3l-2-1-5-6-2-1v-2l-4-1-16-12-14-11-10-7-17-12-16-9-11-7-11-6-10-5-1-2h2z" fill="#253B5F"/>
<path transform="translate(1489,544)" d="m0 0h2l1 2 2 24v59l-2 28-4 28-6 26-8 28-10 28-8 18-4 2h-2v-8l3-11 3-1 3-11 6-17 2-5 9-36 4-23v-7l-2-6 1-21v-69l-1-3v-24l6 2 5-1z" fill="#0E1B33"/>
<path transform="translate(954,200)" d="m0 0h11l1 4-3 4v11l3 22 1 4 1 14 2 6v4h-11l-7-8-10-6-10-8-9-9-7-5-1 8 3 14 5 12 6 7-7 3-13 1 1-12-5-26-2-14h3l-11-8-1-7 5-2 14-1 7 4 11 10 9 7 7 7 7 4-2-22-4-7-4-4-1-4z" fill="#122849"/>
<path transform="translate(1336,346)" d="m0 0h9l2 2v5l-1 2 1 3-2 3-2 8-6 14-10 14-7 10-7 14-4-1-2-5-4-2-10-12-1-3 15-5h2l-2-6h-2l-6-7-4-5v-6l-8 2-3 13-5-2-11-12-1-3 16-4 8-3 21-6z" fill="#132A4B"/>
<path transform="translate(680,349)" d="m0 0 4 2 8 13 11 9 17 12 12 9-1 4-6 5-20 2-25 1-9 2h-6l27 15 10 3 7 1 1 3-8 12-8-6-15-10-13-9-10-6-5-2h-12l2-6 5-9 6-4 9-1 45-2-4-5-16-11-7-3-11-1 1-4 8-10z" fill="#132949"/>
<path transform="translate(1298,1151)" d="m0 0h44l4 5 1 5-3 5-7 3-2 4v31l-2 5-5 4-4 2h-5l-1-3h-8l-9-2-1-2 2-3h2l1-8-1-6-3-12-8-10-8-6-2-5v-5l1-1z" fill="#12294A"/>
<path transform="translate(571,779)" d="m0 0 4 2 4 11 3 5 3 3v2l2 1v3l1 6 3 1v2h2l4 7 2 9 4-1 3 5 1 4 4 7 4 3 3 7 8 11 3 5v2l3 1 3 6v2l7 3 3 5 2 1v3h2l5 9v2l2 1 3 5 19 19 6 2 8 7 3 2v2h2v2l5 2 6 5v2l5 2 13 10 11 8 14 9 13 8 9 7 12 6v3h-11v-2l-5-2-5-3-7-1-11-8-10-6-18-13-11-9-10-8-14-12-17-17-8-7-11-12-18-22-10-13-16-24-10-16-12-22-9-18-2-8z" fill="#0E1931"/>
<path transform="translate(694,772)" d="m0 0 4 4 11 18 5 9 3 8v7l-6 5-11 3-13 3-5 5-3 7-2 9h-3l-6-5-3-7 1-6 6-9 8-9 1-5v-3l-9 2-10 7-7 8-4-2-4-4-7-12v-3l17-3 13-5 18-10 5-6z" fill="#132A4C"/>
<path transform="translate(1008,197)" d="m0 0h8l4 3 8 20 10 23 9 21v2h-28l-1-6 1-9-1-1h-16l-6-2-1 1v9l3 7-2 1h-11l-3-1 1-9 10-27 7-18 7-13z" fill="#122644"/>
<path transform="translate(853,225)" d="m0 0h14l7 4 5 10-1 8-5 5v5l11 8 11 9 8 3-1 2-12 4h-7l-16-11-8-6-1-1-7 1 3 9 9 10 6 5-3 3-26 13-1-2 3-6-1-7-5-13-5-12-2-4 1-3 3-2h6l3-4 4 2 2 2h7l3-1 2-6v-7l-3-6-2-1h-15l1 14h-3l-1-6-2-1v-7l-2 1-2-2 2-3 9-4 5-2z" fill="#152C4D"/>
<path transform="translate(322,183)" d="m0 0h23l-2 2 5 9 6 5 4 3 1 3 1 18v15l-3 2h-40l-4-2v-27l2-10 7-7 4-9z" fill="#FBFCFC"/>
<path transform="translate(1379,893)" d="m0 0 5 1v2l5-1-4 7-16 17-26 26-8 7-14 12-14 11-14 10-15 10-19 12-28 15-24 11-6 1 2-2 6-3 7-5 16-8 25-13 15-10 5-2v-2l-7 4-2-1 4-2 2-4 1-5 4-4 16-11 18-14 15-13 16-15 21-21 7-9z" fill="#132949"/>
<path transform="translate(666,284)" d="m0 0h1l1 7-5 5-9 10-7 8-6 7-10 13-8 11-10 15-4 7h-3l-5 6-2 1-5 12-7 13-8 15-7 17-3 11-4 9-5 16-6 13-4 2v2h-2l-1 4h-2l-1 17 1 2-1 8 1 3-1 2h-3v2h-2v2h-2l1-10 7-31 9-29 7-20 10-24 14-28 11-19 9-14 8-12h4l3-5h2v-2h3v-2l6-5 4-6h2l2-4 11-12 1-2h2v-2h2v-2h2v-2h2l2-4 3-3h2z" fill="#12294A"/>
<path transform="translate(1056,200)" d="m0 0h9l39 5 11 3 4 4-2 11-3 7h-3l-5-13-7-3-6-1-3 21-3 15v13l3 11-13-1-19-4 1-4 7-9 5-22 3-17-1-10h-6l-5 4-4 7-5 2-2-5v-8l2-5z" fill="#13294A"/>
<path transform="translate(792,256)" d="m0 0 5 1 4 6 1 7-15-3-6 3-5 8 1 5 5 4 2 1 2 4 5 5 4 10 6 7 3 2h8l3-2 3-5 2-15 4-4 5 12v2l3 1h-3l1 2h6l-3 3-7 4-11 8-15 11-10 7-2-1-2-10-7-14-6-10-7-10-4-7v-2l-12-3 3-5 10-4 16-11 10-6z" fill="#142B4C"/>
<path transform="translate(1369,391)" d="m0 0 4 1 3 4 2 5 7 8 2 3-1 4-18 5-15 9-14 9-6 7 5 5 3 5v2l16 2 2 1-1 4-13 5-1 1h-5l-5-8-4-6-5-9-9-11-4-7-1-8 6 1h8l25-13 15-11z" fill="#132A4B"/>
<path transform="translate(433,183)" d="m0 0h101v14l-1 21-1 4h-6l-5-4-5-12-6-4-8-2h-21l-4-2-3-4-3-1-14-1-20 2 1 5-9-1-4-4-2-10z" fill="#253B5F"/>
<path transform="translate(736,296)" d="m0 0h6l5 4 2 7-2 2-20 1 1 7 17 17 8 7 10 8 10 6-5 5-15 13h-3l-6-14-14-14-7-8-6-7-6-1-3 3-1 9v10h-3l-7-5-2-7-2-1 2-4 9-9 8-7 19-19z" fill="#122949"/>
<path transform="translate(1358,718)" d="m0 0 5 5 6 5 32 14 10 4-2 5-7 6h-6l-8 3-25 4-5 1 6 5 18 5 8 3 7 1-3 10-3 3-5-1-6-5-22-10-11-6-8-3-1-1v-7l4-4 15-5 13-3h14l-1-5-9-3-13-6v2l-5 1-4 2-2-6 6-12z" fill="#162C4E"/>
<path transform="translate(783,404)" d="m0 0 1 4v5l-4 2-3 3-2 4h-2v2l-4 3-4 8h-2v2l-7 6-4 7-4 15-3 4-4 1-2 5h-2v6h-2l-1 5-5 12-2 10-3 9-3 11-2 7-2 14-2 4-2 17 1 6 1 10-1 35-3 7-3-4v-8l-1-7-1-4-1 5v9l2 15 2 21v7h-1l-4-27-2-23v-15l2-28 5-28 6-24 6-18 8-19 10-18 16-26 14-17 7-8z" fill="#132A4B"/>
<path transform="translate(1215,891)" d="m0 0 5 1 16 9 15 10 13 10 10 7-5 5-10 6-5 1-5-4-3-3-8-3h-6v8l3 5v2h2l2 4-2 4-9 5-4 1-3-19-3-15-2-5-1-12-2-9 1-7z" fill="#263C5F"/>
<path transform="translate(1006,503)" d="m0 0 8 1-1 2-11 4 6-2 5 1 3 4v8l4 1 10-6 4-3h3l-1 9-4 5-14 9-10 9-7 7-2 4 1 9 10 18 12 18 9 8 13 8 12 6-3 1-23-11-9-7-16-24-11-20v-11l-3-1-4 4-6-2 4-10 6-11-7 3-6-1 2-6 9-11 7-7z" fill="#DDE6EA"/>
<path transform="translate(643,743)" d="m0 0h33l7 2v5l-12 14-11 10-9 7-8 7-5 6-7-6-4-8 5-5 6-5 2-4-3-13-12 2-6 3-2 3-7-11v-4l14-2z" fill="#0F1B33"/>
<path transform="translate(1524,544)" d="m0 0 2 3 1 5h2l2 25v53l-3 32-6 36-9 36-4 13-2 1-1-6-2-2 4-8 1-5 1-7h2l-1-4 1-11 3-13 1-11 2-11v-11l1-6 1-59v-42l2-6h2z" fill="#132A4B"/>
<path transform="translate(722,827)" d="m0 0 12 3 8 4 9 10 3 6v5l-6 5-5 3v-8l1-1-1-7-1-3-10-4-10 1-11 7-6 6-5 12 2 9 7 3 5-1 3-2 1-9 1-1h5l9 4 5 1-4 7-8 6-7 10-9-2-9-7-8-8-4-9v-11l7-17 7-5 14-6z" fill="#0E1931"/>
<path transform="translate(632,673)" d="m0 0 11 1 9 4 5 4 5 7 5 15 1 9-4 5-7 3h-8v-3l6-5 2-3-1-11-4-7-5-2h-13l-10 3-9 6-4 5v9l4 6 9 8 1 3-2 3h-7l-7-4-6-8-4-11v-12l5-10 7-7 12-6z" fill="#142A4C"/>
<path transform="translate(1181,915)" d="m0 0 9 1 5 8 1 7-8-3-5-3-8-1-6 3-3 9 1 12 4 8 10 11 4 2 9-1 4-4-2-5-9-7-2-4 2-2 15-5 4 1 3 8 3 10v6l-5 5-8 4-10 3h-13l-10-5-7-8-3-6-2-9v-14l4-9 7-6 8-4z" fill="#0F1C34"/>
<path transform="translate(989,144)" d="m0 0h43l35 4 23 4 28 6 21 5 10 3 1 3 12 2 15 6 8 3-3 1-28-9-34-9-31-6-37-4-15-1h-54l-37 3-24 4-30 7-30 8-15 5-12 3-16 6-3-1 17-7 16-6 21-7 13-3 10-4 12-3 18-2 22-4v-2l8-2z" fill="#12294A"/>
<path transform="translate(1042,650)" d="m0 0 10 2 18 6 9 4 1 2v8l-2 7-3 4-6 2-2-1-1 2-6 2-5 1h-12l-7-1-5-5-4-5-1-2 1-9 6-8 3-3h2l2-4z" fill="#DDE6EA"/>
<path transform="translate(1192,249)" d="m0 0h8l9 3 4 4 2 5-2 12-6 11-8 10-9 6-2 1h-6l-5-5-4-9v-9l4-13 6-9 5-5z" fill="#FBFCFC"/>
<path transform="translate(1135,213)" d="m0 0 9 2 10 4 2 2-1 7-10 25-4 13-2 20-12-2-18-6 1-5 7-4 5-12 8-24 4-19z" fill="#253B5F"/>
<path transform="translate(971,954)" d="m0 0 28 1 5 3-1 7-6 14-2 10-4 2-6-2-2-3 2-4 6-4 3-5v-9l-2-4-9-1-3 4v15l1 2v7l-3 9v7l1 3 11 1 5-3 4-6 5 1 1 9-3 5-4 1h-19l-13-2h-7l-1-1 1-7 3-1 2-35v-8l-1-5z" fill="#0F1B34"/>
<path transform="translate(322,184)" d="m0 0 5 1-5 10-7 8-1 8v27l3 1h40l2-1v-32h1l1 7 1 1 1 19-3 9 1 8-2 9-4-1h-39l-2 1-1 36h-1l-2-36-2-5v-8l-2-6-2-1-1-4v-16l3-11 4-5 3-1 2-4 3-7z" fill="#263C60"/>
<path transform="translate(1373,678)" d="m0 0 11 1v2l-8 7-5 8-1 7 4 1 9-4 6-8 10-3 4-4 2-1h7l9 5 5 8 1 9-4 13-5 10-3 2-6-1-10-6v-3l10-4h6l2-4 2-6-1-7-4-3-5 2-9 8-10 5-2 4-5 1h-6l-9-5-3-3-2-5 1-9 5-14z" fill="#132949"/>
<path transform="translate(1034,953)" d="m0 0h9l5 1 2 5 1 6v8l-4-2-8-12-9-1-2 1-1 7 3 7 4 3 17 5 1-2 6 12v8l-4 8-6 5-13 4h-11l-6-3-3-7v-8l2-2 11 11h11l5-4 1-5-3-3-10-3-12-8-5-5v-8l4-12 4-4z" fill="#0F1B33"/>
<path transform="translate(1215,397)" d="m0 0 4 2 7 6 2 1v2h2l5 5h2l2 5 2 1v2l3-1 5 6 2 1v2h2v3h2v2l3 1v2l3 1 2 4 6 6 6 12 4 6 2 7 4 2 6 9 3 9 2 5 1 7 2 3 5 33 3 13v22l-2 2-9-42-8-27-10-24-12-23-12-19-10-13-11-13-9-10-7-7-2-1z" fill="#0E1A32"/>
<path transform="translate(1842,1100)" d="m0 0h9l11 2 8 5 4 6 1 3v16l-4 7-9 6-11 3-7-2-2-2-2-33v-9z" fill="#FAFBFC"/>
<path transform="translate(633,421)" d="m0 0 2 3 2 5 16 8 11 5 21 5 12 1 2 1-9 19-3 6-5-2-10-8-9-5-15-6-11-5-4-1-5 1h-8l2-6 8-18z" fill="#132A4B"/>
<path transform="translate(894,935)" d="m0 0 5 1 22 8 1 1-1 10v16l3 9h2l8-8 4-7 2-16 9 1 6 2-1 4-7 8-6 10-9 11-12 13-4 3h-5l-2-2-7-56-7-3 2-2z" fill="#132A4C"/>
<path transform="translate(1249,1150)" d="m0 0 2 4 2 16 4 12 6 9 6 5 11 4h12l5-5 1-2 1-17 2 1 3 9 1 9 1 3-2 7-3 3 3 2 14 2 1 2 3 2-14 4-12 2h-18l-19-3-6-2-1-7 1-1h12l6-1-1-4-7-4-5-5-6-8-2-5v-5h2l-1-4-2-1z" fill="#253B5F"/>
<path transform="translate(1271,850)" d="m0 0 7 1 10 4v3l-2 2-23 2 5 8 11 8 8 9v2h2v2l4 2 7 6 5 2-4 5-12 9-5-2-4-10-9-10-9-11-6-7-3-1-4 3-4 17-6-5-1-7 4-7 13-13 8-7 5-4z" fill="#142A4A"/>
<path transform="translate(1287,1007)" d="m0 0 2 1-5 4-13 7-4 3-7 3-6 3-9 5-16 8-28 12-3 5 21-9 6-4 18-8 12-6h3l1-2 6-1-2 4-19 10-36 18-30 10-3-1-1-4-18 3-8 1-5 2-11 1-1 2-16 2-11 2h-9v-1l28-6 31-8 27-8 31-12 24-11 19-9 20-12 6-3 2 1z" fill="#253B5F"/>
<path transform="translate(1402,1100)" d="m0 0h12l10 3 6 5 3 7 1 10-2 9-8 7-7 3h-13l-2-2-1-10-1-27z" fill="#FAFBFC"/>
<path transform="translate(1324,796)" d="m0 0 10 1 12 6 12 11 4 5 1 7-6 7-10 3-16-8-10-9-4-5-2-5 1-9z" fill="#FBFBFC"/>
<path transform="translate(726,839)" d="m0 0 10 1 7 4 2 5v5l-1 1v7l4-2-6 8-5 5v-2l-12-4-1-1h-5l-1 9-6 4-7-1-5-5-1-7 5-12 8-8 10-6z" fill="#FBFCFC"/>
<path transform="translate(1106,944)" d="m0 0 4 1 3 6 1 9-7-1-3-3-2-4h-6l-1 7 8 38 6 5v3l-22 5h-3v-23l-5-30-4-5 8-3z" fill="#0F1B33"/>
<path transform="translate(768,878)" d="m0 0 11 2 6 7 1 8-4 10-7 7-10 7-3 1h-7l-7-6-2-4v-7l2-5 8-11 10-8z" fill="#FBFCFC"/>
<path transform="translate(1e3 116)" d="m0 0 26 1 6 2 38 5 37 6 26 6 3 2-8-1-28-6-29-4-45-3h-26l-37 2-40 4-31 6-12 3-4-1 23-6-8-1 2-2 17-5 19-2 12-1 17-3h9l9-1z" fill="#253B5F"/>
<path transform="translate(824,903)" d="m0 0 5 1 10 6 9 6 2 2h-2l-1 3-3-3-8 1-7 14-5 12-4 8-1 3v11l-9-4-10-5-5-2 2-6 7-5 10-18 7-14z" fill="#152C4D"/>
<path transform="translate(954,200)" d="m0 0h11l1 4-3 4v11l3 22 1 4 1 16-4 1-1-8-4 1-5-6-5-5-5-7-7-3-7-6-7-5-3-3-8-6-9 1 1-3h-5l5 10-2 1-7-5-1-7 5-2 14-1 7 4 11 10 9 7 7 7 7 4-2-22-4-7-4-4-1-4z" fill="#263C60"/>
<path transform="translate(1291,824)" d="m0 0h2l7 9 9 10 14 12 11 7 7 3-1 3-9 7-5 6-4-2-4-5-7-10-22-18-8-6-3-1 2-4 5-5z" fill="#132A4B"/>
<path transform="translate(1132,935)" d="m0 0h7l1 6v10l9 25 8 11v3l-12 5-10 1-3-16-9-31-4-6 1-5z" fill="#13294A"/>
<path transform="translate(1450,796)" d="m0 0 4 4 4 6 1 2-13 25-14 23-16 24-5-3-3-3-6 5 2-4 18-27 14-24 13-25z" fill="#DDE6EA"/>
<path transform="translate(173,182)" d="m0 0h51l24 1 1 20v15l-2 5-9-1-4-5 1-7-3-7v-5h2l-3-3-15-1-19-3-7-5-7-1v-1l-5-1v2h-5z" fill="#253B5F"/>
<path transform="translate(506,227)" d="m0 0h5l2 2v30l-1 9-2 3-7-1-4-5v-3l-5-2-12-4-7-1v3h-2l-1-10 2-5 3-2 15-3 8-5z" fill="#253B5F"/>
<path transform="translate(1008,197)" d="m0 0h8l4 3 8 20 10 23 8 19v3h-7l1-2h3l1-2h-9l-5-6-8-11-7-6-3-16-2-5v-6l-7 2-1-5 5-10z" fill="#0E1931"/>
<path transform="translate(1479,572)" d="m0 0h1v69l-1 21 2 9-1 10-5 26-6 21-2 10-5 12-4 13-2 4-2 1-3 7-3 8-5-3 15-45 8-28 6-28 4-28 2-23z" fill="#253B5F"/>
<path transform="translate(1762,1083)" d="m0 0 17 1 2 1v7l1 4-6 5-6 3v69l-2 15h-1l-1-14-1-13v-21l-1-10v-17h2l1-4v-13l-2-1-8 2h-8v9l-3-3-7-4-4-5-1-8 4-2z" fill="#263C60"/>
<path transform="translate(842,253)" d="m0 0 4 2 2 2h7 3l5 2-1 6 1 2 3 2-2 1-6-5-7 1 3 9 9 10 6 5-3 3-26 13-1-2 3-6-1-7-5-13-5-12-2-4 1-3 3-2h6z" fill="#142B4C"/>
<path transform="translate(1309,355)" d="m0 0 2 1-2 3v2l4-1 2-1h8l1 3-5 14-2 5 1 3-3 1-2 6-4 2-2-6h-2l-6-7-4-5v-6l-8 2-3 13-5-2-11-12-1-3 16-4 8-3z" fill="#263C60"/>
<path transform="translate(1404,581)" d="m0 0 7 2 7 8 3 8v6l-4 5-10 6-5 1-9-3-7-8-2-7 4-10 6-5z" fill="#132A4B"/>
<path transform="translate(618,582)" d="m0 0h10l5 3 4 5 3 8v7l-5 7-10 5-8-1-6-4-6-7v-10l5-8 5-4z" fill="#12294A"/>
<path transform="translate(1230,263)" d="m0 0h1v17l-3 11-10 12-8 6-10 1-4 1h-9v-3h6l1-4-6 2-5-1-8-4v-2l-6-1-1-4 3-3 4-1 4 8 3 2h6l10-6 9-11 4-8 1 2 2 1 1 1h2l1 2 4-2 3-1 3-10v-2h2z" fill="#253B5F"/>
<path transform="translate(1389,256)" d="m0 0 4 2 7 7 7 8 12 14 13 17 10 13 13 20 9 15 10 18 13 26 13 32 10 30 8 29v7l-2-3-4-14-6-20-1-4-10-26-6-12-1-6-3-1-7-14-1-5 1-2-10-20-7-12-3-8-1-3-3-1-10-17-7-8-4-6-3-5-2-1-4-7-7-8-11-14-12-12-5-6z" fill="#101E38"/>
<path transform="translate(830,233)" d="m0 0h2l1 3h3v7l2 7h3l-1-5v-9l15-1 5 5 1 3v7l-3 6-3 2h-7l-6-5-2 4-5 1-6 2-3-3-6-9-6-7v-2z" fill="#253B5F"/>
<path transform="translate(1215,891)" d="m0 0 5 1 16 9 15 10 13 10 10 7-5 5h-3v-2l-10-1-7-5-9-4-12-9-4-2v-2h-3l-1 2-6-4-1-12z" fill="#0F1B34"/>
<path transform="translate(839,917)" d="m0 0 7 1 3 4-2 13-5 8-8 15-6 8-4 4-6-2v-12l4-9 10-22 4-7z" fill="#F9FAFB"/>
<path transform="translate(1494,493)" d="m0 0 2 3 5 27 4 28 2 33v25l-2 43-2 17h-1l-1-9-1-1v-5l1 3h2v-25l-3-17-3-24v-38l1-12v-18l-4-26z" fill="#DDE6EA"/>
<path transform="translate(1309,813)" d="m0 0h3l5 2 10 9 9 6 11 5 10-3 5-6 3-1 4 2-1 5-8 9-10 4h-15l-11-4-8-7-5-6-2-13z" fill="#0F1B34"/>
<path transform="translate(787,266)" d="m0 0 5 1 10 3 1-2-1 7 1 4v7l4 2 1 7-2 4-7 4-4-2h-1l-1 4-4-10-5-4v-3l-5-2-4-5 1-5 6-8z" fill="#FBFBFC"/>
<path transform="translate(798,407)" d="m0 0 3 1-14 15-10 13-11 15-8 13-12 23-11 26-5 15-5 21-1 6h-1v-19l1-3h2l-1-4 1-3h2v-8l5-17 6-13 3-7 11-20 7-11 6-7 4-8 9-10 3-2 1-9 10-4z" fill="#142B4C"/>
<path transform="translate(680,349)" d="m0 0 4 2 8 13 11 9 17 12 12 9-1 4-6 5h-8l3-2h2l1-5-1-4-6-1h-14l-3-1-18-1v-1l25-1-4-5-16-11-7-3-11-1 1-4 8-10z" fill="#283E61"/>
<path transform="translate(1336,346)" d="m0 0h9l2 2v5l-1 2 1 3-4 2-2-1-3 9-3 1-2 5-6 6-1-3-4 10h-2l-1 2-6 2 1-6 4-1v-2l-2-1 6-15 1-6h-8l-3 2-4-1 1-4 5-4z" fill="#142B4C"/>
<path transform="translate(989,98)" d="m0 0h50l35 3 14 2 2 2-13-1-15-1-21 1-13 2-32 1-3 1-1-2-17-1-16-1-2 1h-21l1-2 36-4z" fill="#0E1A33"/>
<path transform="translate(1169,349)" d="m0 0 5 1 5 3v2l5 2 13 8 5 1 14 11 11 10 8 7 9 9 7 8 12 15 12 18 10 17 4 7v2h-2l-1 4-9-15-6-11-5-8v-2h-2l-6-9-9-12-12-12-7-8-7-6v-2l-4-2-11-10-15-11-24-16z" fill="#253B5F"/>
<path transform="translate(1254,271)" d="m0 0 4 1 11 7 1 3-6 1-5-5h-4l-2 6 1 2-2 7-1 3 2 1-6 9-10 10-4 6-1 5 1 3v8l-5-2-15-9 2-5 14-11 21-27 3-12z" fill="#263C60"/>
<path transform="translate(694,772)" d="m0 0 4 4 11 18 5 9 3 8v7l-6 5-2-1 2-5-1-3-3 1h-13l-5-3-2-3v-8l4-6h3l1-5 2-9-7 4-2-1 5-6z" fill="#162D4F"/>
<path transform="translate(737,892)" d="m0 0 1 4h2l1 6 6-1v9l4 6 4 3h7l7-4 4-3 9 1 2-1h3l2-1 3 1-2 5-5 5-12 7-9 1-10-2-9-6-8-8-4-11 1-9z" fill="#142B4C"/>
<path transform="translate(710,813)" d="m0 0 2 4-3 7-20 4-6 4-3 5-3 12-2 2-7-6-3-7 1-6 6-9 6-7 9-2h22z" fill="#13294A"/>
<path transform="translate(983,958)" d="m0 0 9 1 3 5v9l-6 8-4 2-1 4 2 2 7 1h3l3 4v2l4 2-4 1-4 6-5 3-9-1-4-4v-7l3-9v-7l-1-2v-15z" fill="#F9FAFB"/>
<path transform="translate(787,785)" d="m0 0 7 6 8 8 5 6 11 9 8 7 18 13 14 9 23 12 19 9 19 7 10 3-1 3-4 1-5-2-7-1-16-7-10-4v-2l-9-3-10-5-5-3-9-4-4-3-10-7-10-8-6-4-4-4-6-4-1-5-6-1-5-8-3-5-8-7-3-4z" fill="#162C4E"/>
<path transform="translate(1e3 145)" d="m0 0h16l12 1 11 1v2l18 1 18 2 25 5 21 4 28 8 12 3 12 5 8 3-3 1-28-9-34-9-31-6-37-4-15-1h-54l-16 1h-12v-1l25-4 21-2z" fill="#263C60"/>
<path transform="translate(585,409)" d="m0 0h3v6l-10 23-7 18-9 30-8 37-5 35-2 24-1 39h-1v-50l2-23 2-11 4-34 5-22 7-24 12-30z" fill="#152C4E"/>
<path transform="translate(345,183)" d="m0 0h60l4 1-2 10-4 4h-4v-7l1-2-33 3-5 3-4 2-1 4-6-3-6-7-3-7z" fill="#253B5F"/>
<path transform="translate(716,390)" d="m0 0 6 2 2 6-4 4-4 2-11 1h-35l4-3 5-2h-8l-18 2v2h-6v-2l5-1v-2h2l1-4 7-1 4 2 15 1 6-2 13-3 15-1z" fill="#0E1B33"/>
<path transform="translate(1259,178)" d="m0 0 6 2 27 16 12 8 7 4 8 7 10 8 9 7 7 6v2l4 2 2 4h2l4 8v2l2 1v2l-4-2-12-12-10-8-14-11-19-14-10-6-1-8h-2l-1 2-1-2h-4l-2-3-4-4-15-9z" fill="#0E1A32"/>
<path transform="translate(777,476)" d="m0 0h35l66 1 1 1v8l-4 4-13-1-4-2v-2l-9-2-13-1-47-1-12-3z" fill="#0F1B34"/>
<path transform="translate(1009,216)" d="m0 0 3 3 3 11v8l4 2 9 10 3 5v2l4 2v2h9l-1 3h4v2h-28l-1-6 1-9v-3l2-3-4-1v3h-3v-2l-16-2 4-12 6-14z" fill="#253B5F"/>
<path transform="translate(861,249)" d="m0 0 2 2 8-1 2 2v5l11 8 11 9 8 3-1 2-12 4h-7l-16-11-6-7 1-6-5-1 3-8z" fill="#152B4C"/>
<path transform="translate(727,317)" d="m0 0 7 6 11 11 8 7 10 8 10 6-5 5-13 11-2-1-2-5v-7l-1-4-1-8-7-2-5-3-4-6-1-6-8-7 1-4z" fill="#253B5F"/>
<path transform="translate(1405,684)" d="m0 0h7l9 5 5 8 1 9-4 13-5 10-3 2-6-1-10-6v-3l10-4h6l2-4 2-6-1-7-6-4 1-6h-6l-8 3-2 6h-2v-3l-4-1-2-3 10-3 4-4z" fill="#162D4F"/>
<path transform="translate(1745,1187)" d="m0 0 3 1-1 6-4 4-8 3-6 1h-10l2 5-6 1 1 3-1 2h9l17-1 3 3-11 4-6 1h-27l-10-2-1-3 3-4 14-1h5l-3-3v-2l-4-1v-4l5-1 5 1h11l9-3 8-5z" fill="#253B5F"/>
<path transform="translate(1348,753)" d="m0 0h3v2h-4v2l-6 2-1 2h16l-4 2-12 1v2h9l8-2 1-3 2-1h22v1l-19 3-5 1 6 5 18 5 8 3 7 1-3 10-3 3-5-1-6-5-22-10-11-6-8-3-1-1v-7l4-4z" fill="#253B5F"/>
<path transform="translate(1689,1084)" d="m0 0 16 1 1 5-3 4-1-1h-46l1 8-2 4-2-3-9-4-3-6v-6l4-1z" fill="#253B5F"/>
<path transform="translate(1801,1084)" d="m0 0h68l-2 4h-2v2l-2 1-9 1 1 3-3 1-1 4h-9l1-7h-27l-12-1-1-4 1-2z" fill="#253B5F"/>
<path transform="translate(1362,749)" d="m0 0h7l1 3 4 1-4 2h13l-3-1-2-4 7-1h8l14 3-5 5h-6l-8 3-28 1-6 5-10 1-4-1v-2l2-1 10-1h-12v-3l2-2h5v-2h4v-3z" fill="#0E1A32"/>
<path transform="translate(903,226)" d="m0 0 8 1 2 3h3l-1 11 3 14 5 12 6 7-7 3-13 1 1-12-5-26z" fill="#253B5F"/>
<path transform="translate(1293,301)" d="m0 0 12 6 6 4-1 4-12 9-22 22-4-1-1-5 2-7 2 3 6-8 8-9 3-7v-9z" fill="#253B5F"/>
<path transform="translate(818,150)" d="m0 0h5l-4 3-31 13-16 8-10 6-3 4 2 2-6 4-6 1-4-1-2 2-2 5-7 1-5 1-7 4v3l-5 1-2 4-9 7-5 1-1-3 5-5h2v-2l7-4 5-4h2v-2l25-14 15-9 18-10 19-8z" fill="#0D1932"/>
<path transform="translate(778,157)" d="m0 0 4 1-17 10-3 1-2 4-9 4-5 3-4 4-4 1-13 8-18 13-14 10-13 9-4 4h-2v2l-11 9-12 11-4 5-8 7-6 6h-2l2-4 12-13 10-9 12-11 11-9 13-10 9-7 17-12 18-12 16-10 12-7h3v-2z" fill="#0D1930"/>
<path transform="translate(725,665)" d="m0 0 2 4 5 17 7 18 9 20 12 23 10 15 10 13v3l-5-5-5-6-5-7-4-2-1-4-2-2 1-1-5-3-11-20-6-14-5-10-6-19-2-9z" fill="#142B4C"/>
<path transform="translate(1326,787)" d="m0 0h10v2l7 1 1 7 5 1 1 5h2v2h2l3 3 2 4h2l2 8-13-13-9-6-11-4-9 1-4 3-1 8 3 6-1 2-6-4-1 2h-1v6h-1l-1-5v-13l6-11 5-3z" fill="#142A4C"/>
<path transform="translate(1307,804)" d="m0 0h1l2 17 3 8 8 9 3 3 1 5-2 2-7-1 3 4-4-2-12-11-10-12v-2l-2-1 5-2 5-3 5-2-4-2 3-1z" fill="#DDE6EA"/>
<path transform="translate(719,865)" d="m0 0h5l9 4 5 1-4 7-8 6-7 10-9-2-9-7-2-2v-3l3-3 10 2 5-3 1-9z" fill="#152B4C"/>
<path transform="translate(823,290)" d="m0 0 2 1 4 11v2l3 1h-3l1 2h6l-3 3-7 4-11 8-15 11-4 2-1-1v-5h-2v-3l-3-2v-2l7 2 1 2h3v-7h-4l-1-7h3l5 4h8l3-2 3-5 2-15z" fill="#142B4C"/>
<path transform="translate(1479,572)" d="m0 0h1v69l-1 21 2 9-1 10-5 26-6 21-2 10-5 12-4 13-3 4 1-9 5-12 3-14 7-21 1-4 2-6 2-17 1-3h-2l-3 12h-1v-8l4-26 3-31z" fill="#192F51"/>
<path transform="translate(1534,1208)" d="m0 0h13l12 3 19 2 1 1 2-1h10l2 2-12 4-6 1h-28l-16-5 2-1z" fill="#263C60"/>
<path transform="translate(1057,991)" d="m0 0h1v8l-4 8-6 5-13 4h-11l-6-3-3-7v-8l2-2 11 11h11l5-4 2-4 4-1v-2h6z" fill="#263C60"/>
<path transform="translate(940,949)" d="m0 0 9 1 6 2-1 4-7 8-6 10-9 11-9 10-4-4 1-9v-11l5 10 9-9 4-7z" fill="#152C4D"/>
<path transform="translate(661,389)" d="m0 0h38l3 1 13 1v1l-16 1-12 3-6 2h-7l-9-1-3-2-7 1-1 3h-2v2l-5 1v2h2v2l-7 2-3 1 2-6 5-9 6-4z" fill="#132A4B"/>
<path transform="translate(1303,1084)" d="m0 0 13 1 13 3 3 5 1 9v17h-1l-1-12-2-5-5 4-5-2-10-6-4-3z" fill="#263C60"/>
<path transform="translate(592,327)" d="m0 0 3 2-9 15-5 9-5 7-2 13 1 4-10 18-3 1v-4h-2l-1-7 2-7 3-4 4-10 9-14 6-11 8-10z" fill="#253B5F"/>
<path transform="translate(1525,557)" d="m0 0 2 4-1 8h3v-7h1l1 15v53l-1 13h-1l-1-5h-2l-1-2-1-75z" fill="#263C60"/>
<path transform="translate(858,264)" d="m0 0 2 1 4 4 16 11 3 2 6 1-4 2-15 7-2-1-13-13-4-7v-5z" fill="#FAFBFC"/>
<path transform="translate(610,746)" d="m0 0h7l-3 3 5 1 22-1 13 2 5 3 1 3-7 7-7 2-6 2-3-15-12 2-6 3-2 3-7-11z" fill="#162D4E"/>
<path transform="translate(1213,249)" d="m0 0 5 2 3 2 1-2 4 2 4 7v6h-2l1 3-4 9-5 4-3-1v-2l-5 1v-3l1-7 1-9-3-6v-2l-4-2 4-1z" fill="#13294A"/>
<path transform="translate(963,991)" d="m0 0h1l1 13h7l4-1 2 4h12l5-3 4-6 5 1 1 9-3 5-4 1h-19l-13-2h-7l-1-1 1-7 3-1z" fill="#142949"/>
<path transform="translate(856,134)" d="m0 0 4 1-3 2-18 6-15 6-16 6-19 8-16 7-24 14-25 14-4 2 1-3 11-7 21-12h3v-2l6-3h3l1-3 7-4 10-3 1-3 19-8 11-4h3l1-2 11-4 16-4z" fill="#263C60"/>
<path transform="translate(645,272)" d="m0 0 4 1-1 4-7 7-9 11-9 10-11 14-13 18-6 9h-3-2l2-5 7-10 8-12 8-9 10-13 10-11 5-6h2v-2h2l1-4z" fill="#172E4F"/>
<path transform="translate(1373,678)" d="m0 0 11 1v2l-8 7-5 8-1 7 4 1 9-4h2l1 4-5 1-2 4 8 1-4 5-6 2-9-5-3-3-2-5 1-9 5-14z" fill="#0F1D36"/>
<path transform="translate(629,753)" d="m0 0h8l4 13-4 6-5 4-6 4-8-16-1-3 2-4z" fill="#F8F9FA"/>
<path transform="translate(996,247)" d="m0 0 6 2h16l2 2-1 15-4-1-5 1v-2l-2 2-10 1-2-2v-2l-2-5v-9z" fill="#F7F9FA"/>
<path transform="translate(741,173)" d="m0 0v3l-13 9-14 9h-2v2l-6 5-7 4-9 7-14 11-11 10-8 7-6 5-4 5-8 7-12 11-8 8-2-1 7-7 3-4h2l2-4 16-16 8-7 14-13 14-11 17-13 19-13 20-13z" fill="#0F1C35"/>
<path transform="translate(1202,941)" d="m0 0 4 1 3 8 3 10v6l-3 3v-6l-4 1-7 4-2-2 2-4-4-5-6-4-3-5 2-2z" fill="#152C4D"/>
<path transform="translate(1533,1176)" d="m0 0 7 14 7 8 8 3h14l8-3 8-7 4-8 4 2-3 7-6 7-6 3-7 2h3l1 3-4 2h-13l-9-3-8-6-6-7-4-7 1-3h1z" fill="#243A5E"/>
<path transform="translate(1030,957)" d="m0 0 9 1 6 9 4 5 2 1v-8h1l1 16h-7l-14-5-5-6-1-7 2-5z" fill="#F9FAFB"/>
<path transform="translate(848,235)" d="m0 0h7l5 5 1 3v7l-3 6-3 2h-7l-6-7-2-6v-9z" fill="#F8FAFA"/>
<path transform="translate(929,154)" d="m0 0 9 1v1l-30 6-35 9-26 8-12 3-16 6-3-1 17-7 16-6 21-7 13-3 10-4 12-3 18-2z" fill="#162C4E"/>
<path transform="translate(826,1048)" d="m0 0 5 1 30 10 42 11 37 7 27 4 11 1 24 1h24l33-2h10v1l-34 3h-48l-28-2-34-6-28-6-31-8-36-12z" fill="#DDE6EA"/>
<path transform="translate(1479,387)" d="m0 0 3 3 4 9 5 6 10 26 9 27 8 29v7l-2-3-4-14-6-20-1-4-10-26-6-12-1-6-3-1-7-14-1-5z" fill="#132848"/>
<path transform="translate(1400,1101)" d="m0 0 1 4 1 27 1 10 1 1h13l10-5 4-4 2-9 2-1 1 6-3 8-1 3h-2l-1 2-4 1-2 2v6l-2 2h-7l-14-6-2-5v-6h2l-1-4v-29z" fill="#263C60"/>
<path transform="translate(1485,685)" d="m0 0h2l-1 10-8 31-12 36-5 12h-1l-1-11 2-5 5-5 2-12 6-20h2v-7l4-14 2-8z" fill="#162D4E"/>
<path transform="translate(1341,359)" d="m0 0h5l-3 10-6 14-9 12-3-1-4-2-2 3-7-1 1-3 4-3 5-1 3-10 2-1 1 2 6-7 4-5z" fill="#253B5F"/>
<path transform="translate(1291,824)" d="m0 0h2l7 9 9 10 14 12 9 6-1 3-4-1-5-2h-3l-6-7-8-7-2-5-6-1-6-4-1-3h-6v-3z" fill="#253B5F"/>
<path transform="translate(600,705)" d="m0 0h9l1 1 2 9 7 8 5 4 1 3-2 3h-7l-7-4-6-8-4-11z" fill="#253B5F"/>
<path transform="translate(694,794)" d="m0 0 7 1 4 4 2 7v5l-5 3-2 1-9-1-4-5v-8l4-6z" fill="#F8FAFA"/>
<path transform="translate(736,296)" d="m0 0h6l5 4 2 7-2 2-20 1v7l-4-3h-3l-2 5 2 1-1 3-9-2 6-7 15-15z" fill="#253B5F"/>
<path transform="translate(844,1042)" d="m0 0 9 2 24 8 35 9 44 7 17 2 17 1h45l28-2h8v1l-30 3h-60l-28-3-44-7-25-6-21-7-19-7z" fill="#DDE6EA"/>
<path transform="translate(845,255)" d="m0 0 3 2h7 3l5 2-1 6 1 2 3 2-2 1-6-5-7 1 3 9 9 10 6 5-3 3-3 1-10-5v-5l-3-4v-2h-2l-1-4-3-1 3-1h1l1-2-1-10-5-1v-2h2z" fill="#253B5F"/>
<path transform="translate(1165,537)" d="m0 0 2 2 1 3v30l1 19v27l-1 21-1 3-1 11h-1z" fill="#0D182F"/>
<path transform="translate(981,955)" d="m0 0h18l5 3-1 7-6 14-2 10-4 2-6-2-2-3 2-4 6-4 3-5v-9l-2-4-10-1z" fill="#111F39"/>
<path transform="translate(1310,665)" d="m0 0h1l2 11-7 24-12 28-3-4 1-5 7-18 5-15 3-17h2z" fill="#253B5F"/>
<path transform="translate(1135,213)" d="m0 0 9 2-1 4 9 3-4 3-4 1-2 1-1 9v3l-4 1-1-2-3 1-1 5-5 3 1-7 4-17 2-9z" fill="#142B4C"/>
<path transform="translate(1085,988)" d="m0 0h1l1 7 3 1 2-5 4-1 1 5h4l1-3 1 5 6 5v3l-22 5h-3z" fill="#152C4D"/>
<path transform="translate(979,988)" d="m0 0 4 1v1l12 2 3 4-1 7-4 4-9 1-5-2-2-3v-7z" fill="#FAFBFC"/>
<path transform="translate(696,371)" d="m0 0 5 3 6 2 13 9 12 9-1 4-6 5h-8l3-2h2l1-5-1-4-6-1h-14l-3-1-18-1v-1l25-1-4-6 4 2 5 4h3l-13-10-5-4z" fill="#263C60"/>
<path transform="translate(1069,243)" d="m0 0 1 3h2l1-2 3 6v2h6l1 4v4h-2l-1 3-2-1-1 6-4 1v-2l-7 1v-4l-4 2-1 2h-3l1-4 7-9z" fill="#253B5F"/>
<path transform="translate(1358,718)" d="m0 0 7 7 2 5 10 7h4l5 2 9 4v2l4 2 2 2-8-1-9-4v-2l-5-1-11-5-7-3v2l-5 1-4 2-2-6 6-12z" fill="#101D36"/>
<path transform="translate(1419,701)" d="m0 0 1 2 3 1-1 7 3 1-3 9-4 8-3 2-6-1-10-6v-3l10-4h6l2-4 2-6z" fill="#253B5F"/>
<path transform="translate(1097,205)" d="m0 0h7l11 3 4 4-2 11-3 7h-3l-5-13-7-3-4-2h2z" fill="#23395D"/>
<path transform="translate(1369,391)" d="m0 0 4 1 3 4 2 5 7 8 2 3-1 4-18 5-1-4 3-8-5 2v-3l6-3 1-8h-2z" fill="#253B5F"/>
<path transform="translate(1271,850)" d="m0 0 7 1 10 4v3l-2 2-23 2 3 7-9-1-3-1-1-3 12-11z" fill="#243A5D"/>
<path transform="translate(1009,216)" d="m0 0 3 3 3 11 1 12-6 2-12-1 4-12 6-14z" fill="#F6F8F9"/>
<path transform="translate(1409,583)" d="m0 0 4 2 6 8 2 6v6l-4 5-5 2-2-5-5-2v-2l-3-1 1-4 4-4 3-1v2h2l1-5h-7z" fill="#162D4E"/>
<path transform="translate(1315,359)" d="m0 0h8l1 3-5 14-3 4-7-1-5-6 1-7z" fill="#F8FAFA"/>
<path transform="translate(989,144)" d="m0 0h31l-3 2h-13l-6 1-18 2-18 3h-7v2l-9 1h-13l2-2 10-2v-2l8-2z" fill="#132A4B"/>
<path transform="translate(395,301)" d="m0 0 5 5h5l4 10-1 2-3 1-12 1h-40l-2-2 3-1-1-2 2-3h7l6 4 2 2h10l2 1 1-2 18-2-5-10z" fill="#253B5E"/>
<path transform="translate(918,952)" d="m0 0h2l1 34-1 5 2 5-5 4h-5v-8l-2-1 1-5 2-4 2-8 1-16z" fill="#0E1931"/>
<path transform="translate(1185,238)" d="m0 0h17l12 4 9 7 1 3-5 1-4-3h-4l-1 2-10-2-3-3 1-3-3-1 1-4-18 4-4 3-3-1 3-3z" fill="#253B5F"/>
<path transform="translate(1014,197)" d="m0 0 5 2 5 12 9 21-2 9h-3l-6-12-2-9-1-5-5-15z" fill="#13294A"/>
<path transform="translate(260,184)" d="m0 0h10l15 2 3 3v2l-8 2h-5v6l-12-1-3-10z" fill="#263C60"/>
<path transform="translate(590,308)" d="m0 0h4v2h2l-2 6-3 3-3 4-6 10-3 3-3 8h-6l-1-5 7-11z" fill="#243A5E"/>
<path transform="translate(1840,1111)" d="m0 0h1l2 33 6 3 10-2 12-6-2 5-5 6-5 4-2 3h-10l-2-4h-2l-1-7-1-1-1-11z" fill="#263C60"/>
<path transform="translate(937,893)" d="m0 0h9l20 4 15 2 23 1h23l17-1 22-3h8v1l-26 4-24 2h-27l-30-3-26-5z" fill="#1B3154"/>
<path transform="translate(903,226)" d="m0 0 8 1 2 3h3l-1 11v11h-2v3l-1 5-3-1-5-23z" fill="#142B4C"/>
<path transform="translate(796,281)" d="m0 0 4 1 1 3 5 2 2 3-1 8-3 2-6 1-5-4-1-3 1-2-4-2 1-4z" fill="#253B5E"/>
<path transform="translate(1287,176)" d="m0 0 5 1 19 12 19 14 13 10 11 9 14 12 7 7 8 7 5 6-4-2-8-6v-2l-4-2-12-12-8-6-6-6-3-1v-2l-5-2-10-8-8-6v-2l-5-2-11-8-7-4-10-6z" fill="#121F39"/>
<path transform="translate(797,311)" d="m0 0 7 5h8l4-2-1 5v3l-15 11-4 2-1-1v-5h-2v-3l-3-2v-2l7 2 1 2h3v-7h-4l-1-7z" fill="#283D61"/>
<path transform="translate(1450,775)" d="m0 0 1 4-1 10h-2l-1 4-3 3-4 9-3 4h-2l-1-3h-3l2-6 9-19 4-1 1 2z" fill="#13294B"/>
<path transform="translate(1364,825)" d="m0 0 5 2-1 5-8 9-10 4h-15l-8-3 4-1h11l7 1 3-5-4-1 10-5 4-5z" fill="#152A4B"/>
<path transform="translate(780,708)" d="m0 0 3 1-3 2 1 3h-3l-2 6-2 1 2 1v5h9l1 3h23l57 1 10 1v1l-99-1-4-4-2-11 1-5z" fill="#263C60"/>
<path transform="translate(709,663)" d="m0 0 5 4 7 21 6 20 3 8-1 4-2 1-9-24-9-31z" fill="#142B4C"/>
<path transform="translate(671,399)" d="m0 0h8l1 2-8 3 8 1v1l-9 2h-6l2 2h-3l-1 4-12-5-9-1 2-2h5v-2h4v-2l2-1z" fill="#172D4F"/>
<path transform="translate(861,262)" d="m0 0h6v2l3-1 9 4 5 5 5 4 2 1v3l-8-1-9-2-9-7-4-5z" fill="#0D1830"/>
<path transform="translate(1185,946)" d="m0 0 2 1v3l5 5 6 5 1 4-5 5-9 1-4-3h2l-1-9 2-11z" fill="#DDE6EA"/>
<path transform="translate(989,242)" d="m0 0 1 3v2h2v-3l4-1v5l-1 1v9l3 7-2 1h-11l-3-1 1-9 5-13z" fill="#0F1D36"/>
<path transform="translate(1015,233)" d="m0 0 4 1 5 8 5 1 3-1 2 2v3l-2 1 5 2 3 4 3 1 3 7v3h-7l1-2h3l1-2h-9l-5-6-8-11-7-6z" fill="#122949"/>
<path transform="translate(1087,207)" d="m0 0 5 5v11l-4 18-2 1-1-7v-5l-5-2 2-9z" fill="#0E1A32"/>
<path transform="translate(953,1105)" d="m0 0 18 1h96v1l-39 3h-30l-29-2-16-2z" fill="#263C60"/>
<path transform="translate(1159,930)" d="m0 0 3 1 1 4 1 14 2 6v3h-5l-2-2v-4h-2l-2 3-1-5v-14l2-5z" fill="#152B4D"/>
<path transform="translate(644,766)" d="m0 0 2 2-11 11 1 2 3-1 6 2-1 5-6 7-7-6-4-8 5-5 6-5 1-2z" fill="#142A4C"/>
<path transform="translate(1145,977)" d="m0 0h5l4 6 3 4v3l-12 5-10 1 1-4 1 1 2-6 4-1v-6z" fill="#253B5F"/>
<path transform="translate(1258 1e3)" d="m0 0m-1 1m-2 1 4 2-4 3-24 13-24 11-6 1 2-2 6-3 7-5 16-8z" fill="#182E50"/>
<path transform="translate(1373,678)" d="m0 0 11 1v2l-8 7-5 8-2 7-2-2-4 3 1-9 5-14z" fill="#162D4E"/>
<path transform="translate(834,128)" d="m0 0 4 1-20 8h-3l-1 3-16 7-12 4-12 6-4 4-5 1-3 3-6 1v-2l24-13 26-12z" fill="#12213C"/>
<path transform="translate(749,877)" d="m0 0h3l-2 5-1 5 2 9-6 7-5-1-1-4 1-2h-2v-5l4-7h2l2-4z" fill="#0D1830"/>
<path transform="translate(1252,913)" d="m0 0 4 2 15 11 3 3-5 4h-3v-2l-10-1-6-4 3-1 1 1 1-4-2-1v-2l-3-1 1-4z" fill="#13294A"/>
<path transform="translate(1296,688)" d="m0 0 1 3-6 16-4 7-3 2-4 13-6 4-1-3 9-20 4-11 3-1 2 1 3-8z" fill="#253B5F"/>
<path transform="translate(1460,1177)" d="m0 0 3 3 10 15 6 8 8 7 3 5v4h-7l2-5-3-1-14-16-5-7-1-4v-3z" fill="#23395D"/>
<path transform="translate(1271,1094)" d="m0 0h2v2h11l10 2 4 3-6-1h-16l-9 5-7 8-5 11-2 4-1-4 3-7 2-8 5-5 3-7z" fill="#253B5F"/>
<path transform="translate(716,403)" d="m0 0h9l-3 2-15 1-6 3-22 1v3l-5 1-10-6 3-1 6-1 7-1 25-1z" fill="#DDE6EA"/>
<path transform="translate(1181,915)" d="m0 0 9 1 5 8 1 7-8-3-5-3-8-1-4 1-2-2 7-3v-3-1z" fill="#142A4A"/>
<path transform="translate(530,570)" d="m0 0h1l1 64 3 29 2 15v5l-2-4-4-22-2-17-1-19z" fill="#DDE6EA"/>
<path transform="translate(1056,200)" d="m0 0h9l3 2-3 1 2 1v2l-5 4-4 7-5 2-2-5v-8l2-5z" fill="#152B4D"/>
<path transform="translate(1034,953)" d="m0 0h9l5 1 2 5 1 6v8l-4-2-8-12-9-1-2-1-2-3z" fill="#14233E"/>
<path transform="translate(1222,909)" d="m0 0 6 2 9 7 8 6 2 3-7-2-6 1h-3l-5-3-4-7z" fill="#DDE6EA"/>
<path transform="translate(645,272)" d="m0 0 4 1-1 4-7 7-9 11-5 6-2-1-5 5-8 9v-3l8-10 7-8 11-13h2v-2h2l1-4z" fill="#253B5F"/>
<path transform="translate(1442,1148)" d="m0 0h5l1 2-2 1 2 5 9 14 3 5-1 2-1-3-6-1v-3h-2l-5-9-3-3-9-3v-3l8-3z" fill="#253B5F"/>
<path transform="translate(1057,991)" d="m0 0h1v8l-4 8-6 5-7 1-2-4h2l1-4 4-6 4-1v-2h6z" fill="#152C4E"/>
<path transform="translate(1045,356)" d="m0 0 11 2 3 4 1 3 18 10 1 3-7-1-12-6-9-6-5-5z" fill="#DDE6EA"/>
<path transform="translate(702,329)" d="m0 0h2l3 12v10h-3l-7-5-2-7-2-1 2-4 4-3z" fill="#253B5F"/>
<path transform="translate(1106,944)" d="m0 0 4 1 3 6 1 9-7-1-3-3-2-4h-6l-2 3-1-6-2-1z" fill="#162B4C"/>
<path transform="translate(719,242)" d="m0 0 2 2-12 9-12 8-6 7-5 5h-2l-1 2v-2l-3 1-2-2 12-11h3v-2l12-9 9-5z" fill="#12294A"/>
<path transform="translate(792,256)" d="m0 0 5 1 4 6 1 7-15-3h-3v-2l-4-2 5-4z" fill="#182E4F"/>
<path transform="translate(786,896)" d="m0 0 3 3v4l6 1-1 6-1 2h-5l-2 2h-3l-8-1 2-4 5-6z" fill="#0E1A32"/>
<path transform="translate(1264,325)" d="m0 0 2 3 1 6v3h5l-1 5 2 1-1 2h4l-2 4-6 7-1-4-2-2 2-5h-4l-2-7 1-2 1-10z" fill="#0D1A32"/>
<path transform="translate(1383,742)" d="m0 0 1 2 4 1 13 4h7v3l-12-1-6-1h-8l-3 1 1 3 5 1v1h-17l2-2 3-1-3-1-1-2-3-2 4-1h14z" fill="#152C4D"/>
<path transform="translate(271,305)" d="m0 0 2 1-3 5-5 2 4 2h9l1-1h5l3 3 34 1v1h-56l-3-2v-7l6-4z" fill="#263C60"/>
<path transform="translate(1139,937)" d="m0 0 1 4v11l-3 1-1 6-5-1-1-8-1-1v-8l4-1v-2l6 1z" fill="#253B5F"/>
<path transform="translate(693,856)" d="m0 0 1 2h-2l1 2 8-1-1 9 2 10-3 1-1 2-6-7 1-4v-3h-2l-1-2v-8z" fill="#0E1A33"/>
<path transform="translate(744,837)" d="m0 0 5 5 4 5 1 8-6 5-5 3v-8l1-1-1-7-1-4 3-2z" fill="#152A4A"/>
<path transform="translate(1246,722)" d="m0 0 3 1v2h2l1-3v7l-4 4-61-1-30-1v-1h89l-2-4v-3z" fill="#263C60"/>
<path transform="translate(1063,952)" d="m0 0h9l1 3-6 15-6 2v-18z" fill="#12203A"/>
<path transform="translate(1287,1154)" d="m0 0 1 2h5v-2l6 2 2 4-4 4-1 7-9-6-3-4-1-5h4z" fill="#253B5F"/>
<path transform="translate(1258,870)" d="m0 0 4 3 2 6 5 3v2l2 1 1 2 4 1 3-1 3 7v3l-6 1-10-11-8-10-1-6z" fill="#0E1A31"/>
<path transform="translate(1306,404)" d="m0 0 6 1 3 3 2-2 3 1-7 14-4-1-2-5-4-2-1-3h3v-5z" fill="#162C4E"/>
<path transform="translate(152,186)" d="m0 0h22l-1 3-7 1-1 4-1 1h-10l-7-3 2-4h3z" fill="#263C60"/>
<path transform="translate(775,266)" d="m0 0 2 1-2 5-6 3-6 8-1 3-12-3 3-5 10-4z" fill="#152C4E"/>
<path transform="translate(1407,689)" d="m0 0h7l-1 6-5 5-7 6-3-1h2v-2l-3-1 3-10z" fill="#0E1A32"/>
<path transform="translate(1476,694)" d="m0 0 1 4-6 23-4 17-5 12-4 13-3 4 1-9 5-12 3-14 7-21 1-4 2-6z" fill="#12294A"/>
<path transform="translate(1262,988)" d="m0 0 2 1-2 3v3l2 1-8 4-5-1-9 6v2h-7l-3-2 19-10z" fill="#122847"/>
<path transform="translate(1021,967)" d="m0 0h2l2 4 2 1 1-2 4 5 8 3-5 4-3 2-5-1-2-4-6-2-1-3z" fill="#132A4B"/>
<path transform="translate(1194,944)" d="m0 0h2v2l4 1v3l2 7-5 3-10-8-2-4 2-2z" fill="#253B5F"/>
<path transform="translate(1317,865)" d="m0 0 6 1 8 6 2 1-7 8-4-2-4-5-4-6v-2z" fill="#0E1A32"/>
<path transform="translate(777,284)" d="m0 0 7 4 2 4 5 5 4 11-6 1-6-1-1-2 1-5h5v-2h-5v-5l-6-8z" fill="#263C60"/>
<path transform="translate(842,253)" d="m0 0 3 1v3h-2l1 2v6h-2v5h-3l1-3h-5l-2 4-4-9 1-3 3-2h6z" fill="#162D4E"/>
<path transform="translate(841,229)" d="m0 0 2 3 5-3h2l1 4 2 2-5 1h-8l1 14h-3l-1-6-2-1v-7l-2 1-2-2 2-3z" fill="#253B5F"/>
<path transform="translate(945,332)" d="m0 0h7l3 2v3l-8 4-15 3 1-4 10-7z" fill="#FEFEFE"/>
<path transform="translate(646,751)" d="m0 0 11 1 3 3-2 5-4 3-7-1-3-3-1-4 1-3z" fill="#DDE6EA"/>
<path transform="translate(1e3 216)" d="m0 0 1 2-5 22-4 4-1 3h-2l-1 3v-10l7-19z" fill="#253B5F"/>
<path transform="translate(837,951)" d="m0 0 2 4-2 11-3 9-6-2-4-4 7-8z" fill="#243A5E"/>
<path transform="translate(1507,622)" d="m0 0h2l2 5v15l-2 9-2 7v6h-2l-1 2v-14l1-2z" fill="#132A4B"/>
<path transform="translate(551,525)" d="m0 0h1v10l-4 33-1 14-1 39h-1v-50l2-23 2-11 1-11z" fill="#1B3254"/>
<path transform="translate(1132,356)" d="m0 0 12 6 9 6 10 8 9 8-2 5-4-1v-6h-2v-2l-4-2-14-11-11-6-3-3z" fill="#DDE6EA"/>
<path transform="translate(1277,837)" d="m0 0 1 2 4 1 4 4-5 3-2 3 1 2-9-2 1-4h-7v-3z" fill="#DDE6EA"/>
<path transform="translate(909,671)" d="m0 0 4 5 7 11 5 6 7 8 7 6 10 7 14 8 9 4-4 1-16-8-11-7-13-12-9-10-9-14z" fill="#101E38"/>
<path transform="translate(1299,671)" d="m0 0h3l-2 10-2 7h-2l-2 6-3 6h-3l-1-4 4-12 4-2 1-4h3l-1-6z" fill="#142B4C"/>
<path transform="translate(1495,536)" d="m0 0h1l1 9-2 6-1 4 2 30-1 44h-1l-1-59-2-24v-7h1v5h2z" fill="#DDE6EA"/>
<path transform="translate(741,173)" d="m0 0v3l-13 9-14 9h-2v2l-6 5-7 4-4 3-2-1 4-5 13-9 18-12z" fill="#101D36"/>
<path transform="translate(1348,753)" d="m0 0h3v2h-4v2l-6 2-1 2h16l-4 2-12 1v2h13l5 2 1 3v4l-9-3-9-4-3-2v-7l4-4z" fill="#1D3255"/>
<path transform="translate(929,154)" d="m0 0 9 1v1l-30 6-9 2-4-1 2-4 8-2 18-2z" fill="#193052"/>
<path transform="translate(707,377)" d="m0 0 5 2 13 10 7 5-1 4-6 5h-8l3-2h2l1-5-1-3 3-1-10-6-8-7z" fill="#172E4F"/>
<path transform="translate(765,161)" d="m0 0h5l-4 2v2l-14 7-12 8-8 5-2-1 9-8 2-1 1-3 12-7h6l4-1z" fill="#12223F"/>
<path transform="translate(1368,1213)" d="m0 0 13 1h2v2h11l7 1 5-1 5 2v1h-27l-24-1 3-2z" fill="#263C60"/>
<path transform="translate(1409,593)" d="m0 0 1 2h2l1 8 5 5-4 4h-2l-2-5-5-2v-2l-3-1 1-4 4-4z" fill="#253B5F"/>
<path transform="translate(629,676)" d="m0 0 5 1 2 1-1 2-10 4-14 7-4 1 3-5 11-8z" fill="#0D182F"/>
<path transform="translate(1471,1114)" d="m0 0h1v15l-5 10-5 6-5 2-3-1 5-6h2l1-5 3-3h2v-2h2l-1-3z" fill="#263C60"/>
<path transform="translate(963,991)" d="m0 0h1l1 13h7l4-1 1 2-2 2-1 2-2-1-4 1 2 1v2h-11l-1-1 1-7 3-1z" fill="#172E4F"/>
<path transform="translate(840,287)" d="m0 0 2 4 1 7-3 6v3l-7 1-4-1-1-5-1-6 4 2 1 3 6-2z" fill="#DDE6EA"/>
<path transform="translate(806,1025)" d="m0 0 6 1 11 4 3 2 17 5 10 5 3 1v2l-9-2-28-11-13-6z" fill="#193052"/>
<path transform="translate(355,312)" d="m0 0h7l6 4 2 2h10l1 2h-28l-2-2 3-1-1-2z" fill="#263C60"/>
<path transform="translate(818,150)" d="m0 0h5l-4 3-31 13-10 5-3-1v-2l23-10z" fill="#0E1B35"/>
<path transform="translate(658,394)" d="m0 0 5 1 7 1 5 2-4 2-18 2v2h-6v-2l5-1v-2h2l1-4z" fill="#0D1931"/>
<path transform="translate(1120,938)" d="m0 0h6l2 3 1 22h-2l-5-16-3-4z" fill="#0F1C35"/>
<path transform="translate(722,827)" d="m0 0 12 3 8 4-3 3-5-1-1-2 5 1v-2l-19-1-17 5-2-1 14-7z" fill="#263C60"/>
<path transform="translate(683,256)" d="m0 0h2l-2 4-16 15-8 8h-2l2-5 3-5 5-2v-2l8-7z" fill="#F6F8F9"/>
<path transform="translate(1313,798)" d="m0 0 4 2-1 9 3 6-1 2-6-4-1 2h-1v6h-1l-1-5v-13l1 3h2v-6z" fill="#263C60"/>
<path transform="translate(1485,685)" d="m0 0h2l-1 10-4 16-3 1v5l-3 3 1-10 5-18z" fill="#152C4D"/>
<path transform="translate(1331,1151)" d="m0 0h11l4 5 1 5-3 5-7 3-2 1 2-4 5-4-1-4-6-2v-3h-13v-1z" fill="#253B5F"/>
<path transform="translate(1186,846)" d="m0 0m-1 1m-1 1m-1 1m-2 1h2v3l-26 15-7 2-1-2 7-5 12-5 7-5z" fill="#142B4D"/>
<path transform="translate(857,279)" d="m0 0 6 1 2 5 4 1 1-5 4 2v2l4 1v-3l5-1 6 1-4 2-15 7-2-1-5-5z" fill="#DDE6EA"/>
<path transform="translate(1016,996)" d="m0 0 3 1 7 8v4h-3v2h-2l-1 2 2 1-4-1-3-7v-8z" fill="#142949"/>
<path transform="translate(543,494)" d="m0 0h1v11l1 2-1 8 1 3-1 2h-3v2h-2v2h-2l1-10 4-19z" fill="#152C4E"/>
<path transform="translate(359,259)" d="m0 0 2 2 2 8-1 3-2 29-2 8-4-1v2l-5 3-2 4 1-8 9-7 1-2 1-21z" fill="#263C60"/>
<path transform="translate(779,263)" d="m0 0 5 2v3l-9 9-4-1-3 6h-2l-1 3h-2l1-5 5-6 6-3 1-6z" fill="#112441"/>
<path transform="translate(954,200)" d="m0 0h11l1 4-1 2-5-2-8 1-2 6-4-1-3-7z" fill="#142B4C"/>
<path transform="translate(1234,708)" d="m0 0 16 4 2 3-2 3-5-1-14-1 2-2z" fill="#263C60"/>
<path transform="translate(984,470)" d="m0 0h5l-1 3-15 5-15 8-6 4-3-1 1-2 11-6 3-3 7-3z" fill="#F4F7F8"/>
<path transform="translate(1589,1183)" d="m0 0 4 2-3 7-6 7-6 3-9 1 1-2 10-5 6-7z" fill="#253B5F"/>
<path transform="translate(1255,1086)" d="m0 0h4v2l-9 2-1 3-7 3-3 3h-2v2l-5 3-3 1-1 2v-3l7-8 8-5z" fill="#263C60"/>
<path transform="translate(1118,331)" d="m0 0 8 1v3h2v2l5 2 4 3-11-1-16-8v-1z" fill="#0D182F"/>
<path transform="translate(743,876)" d="m0 0 2 1-4 5-3 7h-3l-3 4-5-1v-6l4-3 7-3z" fill="#DDE6EA"/>
<path transform="translate(1641,1086)" d="m0 0h12l-2 3 1 6-4 3-2 1-4-4z" fill="#132A4B"/>
<path transform="translate(1335,418)" d="m0 0 2 1-5 3-3 4-13 4-1 3-3-3-1-8 6 1h8z" fill="#253B5F"/>
<path transform="translate(691,851)" d="m0 0 1 2h2v-2h5l1 2-1 4 2 2-6 2h-3v-3l1-1h-3l1 10 3-1v3l2 1-5 2-2-5v-11z" fill="#132A4C"/>
<path transform="translate(1257,331)" d="m0 0h1l1 13-1 6-3 7h-1l-1-8v-9l1-7z" fill="#263C60"/>
<path transform="translate(686,802)" d="m0 0h1l2 9 5 4h-8l-7 1 2-4v-6h-5l3-1v-2z" fill="#263C60"/>
<path transform="translate(1479,387)" d="m0 0 3 3 4 9 4 4v4 5l-2-1v-2l-3-1-7-14-1-5z" fill="#142B4C"/>
<path transform="translate(1e3 210)" d="m0 0 3 1-1 2 7-2v5l-5 10-2 3 1-9-2-1-1 2v-4l-4 5 1-6z" fill="#162D4E"/>
<path transform="translate(1505,451)" d="m0 0h3l10 36v7l-2-3-4-14-6-20z" fill="#162C4E"/>
<path transform="translate(1307,512)" d="m0 0 2 3 7 30 1 13h-1l-4-16v-8l-2-1v-8h-2l-4-9v-2h3z" fill="#263C60"/>
<path transform="translate(1362,1202)" d="m0 0h2l1 5-4 2h-3v2h-3v3h2v3l-5-1v-7l2-5z" fill="#253B5F"/>
<path transform="translate(724,837)" d="m0 0h8l3 1v2h-9l-7 3-9 6-4 3-2-5 6-5 8-2z" fill="#152C4D"/>
<path transform="translate(1543,1102)" d="m0 0 4 2-6 7-5 9-2-1-1-7 2-4h2l2-4z" fill="#263C60"/>
<path transform="translate(1315,359)" d="m0 0h8l1 3-2 7-5-2-3-1h-8l4-4z" fill="#DDE6EA"/>
<path transform="translate(1293,478)" d="m0 0 2 3 8 18 1 5-3-3v-3l-4-2-7-12 1-4 2 1z" fill="#243A5E"/>
<path transform="translate(687,370)" d="m0 0 7 1 19 14 2 3-5-1-6-5-5-2-12-9z" fill="#162D4E"/>
<path transform="translate(719,865)" d="m0 0h5l1 4-1 1 5 3v2l-13 3 2-12z" fill="#101D37"/>
<path transform="translate(910,266)" d="m0 0h1v6l-2 6 4 1h-11l-4-3-4-2v-1l11-2 2-2h3z" fill="#DDE6EA"/>
<path transform="translate(1376,737)" d="m0 0 4 1 3-1 6 4 6 2v2l4 2 2 2-8-1-9-4v-2l-5-1-3-2z" fill="#0F1C35"/>
<path transform="translate(780,286)" d="m0 0h10l1 5 2 1v5l6 3 4 1-6 2-3-4v6l-2-3-4-8-4-3v-3z" fill="#DEE7EA"/>
<path transform="translate(654,238)" d="m0 0m-1 1m-1 1m-1 1m-1 1m-1 1m-2 1 2 1-12 14-8 7-10 10-2-1 7-7 3-4h2l2-4z" fill="#13223D"/>
<path transform="translate(722,194)" d="m0 0m-1 1m-2 1h2v5l-11 8h-3v2l-5 3-2-1 8-9z" fill="#192F51"/>
<path transform="translate(1745,1187)" d="m0 0 3 1-1 6-4 4-8 3-11 1 1-2 9-3 8-5z" fill="#263C60"/>
<path transform="translate(1360,732)" d="m0 0 6 2 8 4-3 1-10 1h-11l1-5 2 2 4-3 4 1z" fill="#DEE6EA"/>
<path transform="translate(690,819)" d="m0 0 8 4 1 1h6v1l-11 2-11-1-1-2h2v-3z" fill="#263C60"/>
<path transform="translate(860,500)" d="m0 0h4l-1 9-1 24-1 5h-1z" fill="#FEFEFE"/>
<path transform="translate(787,266)" d="m0 0 5 1 10 3 1-2-1 7 1 10h-2l-2-3-3-2 3-2v-5l-10-3z" fill="#DDE6EA"/>
<path transform="translate(653,810)" d="m0 0h5l1 4-3 2h-3l3 1 5-2-6 8-6-3v-5z" fill="#243A5E"/>
<path transform="translate(788,147)" d="m0 0 2 1-8 5-8 4-4 4-5 1-3 3-6 1v-2l24-13z" fill="#12213B"/>
<path transform="translate(790,1009)" d="m0 0 5 1 8 4v3l-6 1-8-3v-4z" fill="#0D182F"/>
<path transform="translate(975 1e3)" d="m0 0h2l1 2h6l1 3-3 1v2h-11l-1-3-3-1v-1l6-1 1-1z" fill="#122645"/>
<path transform="translate(657,799)" d="m0 0 3 1-14 9-5-2-1-5z" fill="#253B5F"/>
<path transform="translate(1368,399)" d="m0 0 1 3-8 5-4 5-4 1h-7l5-4 11-8 5-1z" fill="#263C60"/>
<path transform="translate(889,128)" d="m0 0 3 1-16 5-27 8-4-1h3v-2l9-3 14-3z" fill="#0D182F"/>
<path transform="translate(1470,369)" d="m0 0 3 3 2 4 4 4 10 21-1 3-4-6-4-10-3-3-7-14z" fill="#11203A"/>
<path transform="translate(1170,970)" d="m0 0h6l2 5 11 2v1h-13l-9-4v-3z" fill="#142B4D"/>
<path transform="translate(866,963)" d="m0 0 5 1-2 3 1 4 5-2 2 1 1 5-4 2-5-3-3-2-1-8z" fill="#0D182F"/>
<path transform="translate(688,422)" d="m0 0 10 3 11 2 1 3-2 2-5-2-13-2-2-4z" fill="#253B5F"/>
<path transform="translate(1e3 244)" d="m0 0h10l-1 3h3v-3l4 1-2 4h-16l-1-4z" fill="#152C4D"/>
<path transform="translate(1184,828)" d="m0 0h5l-3 5-9 6h-4l1-4 8-6z" fill="#F9FAFB"/>
<path transform="translate(728,523)" d="m0 0h2l-1 9-4 17-1 6h-1v-19l1-3h2l-1-4 1-3h2z" fill="#162D4E"/>
<path transform="translate(1539,1085)" d="m0 0h3v2l-16 7h-2l-1 3-5 4-3-1 4-5 14-8z" fill="#253B5F"/>
<path transform="translate(787,785)" d="m0 0 7 6 8 8 9 11 1 2-6-1-5-8-3-5-8-7-3-4z" fill="#142B4C"/>
<path transform="translate(993,251)" d="m0 0h1l2 9 2 5-2 1h-11l1-2h2l2-5z" fill="#263C60"/>
<path transform="translate(775,266)" d="m0 0 2 1-2 5-6 3-6 8-1 3-4-2 1-3 4-2 3-5h2l-1-3z" fill="#243A5E"/>
<path transform="translate(489,196)" d="m0 0h19v3 1h-27v-2h8z" fill="#142B4C"/>
<path transform="translate(1333,1173)" d="m0 0h1l1 31-2 4-2-5-1-2 1-3 1-22z" fill="#263C60"/>
<path transform="translate(990,979)" d="m0 0 2 4 2 7-3 1-6-2-2-3 2-4z" fill="#253B5F"/>
<path transform="translate(833,232)" d="m0 0h5v5l2 3 1 10h-3l-1-6-2-1v-7l-2 1-2-2z" fill="#112544"/>
<path transform="translate(1202,941)" d="m0 0 4 1 1 3-3 2-1 10-2-1-2-7v-2l-3-1v-3zm-1 16m-1 1m-2 1h2l-1 2z" fill="#162C4D"/>
<path transform="translate(1327,841)" d="m0 0h15l12 1v2l-4 1h-15l-8-3z" fill="#1A3053"/>
<path transform="translate(693,376)" d="m0 0 5 2 8 7v2l-4 1h-20v-1l15-1v-5z" fill="#DDE6EA"/>
<path transform="translate(826,296)" d="m0 0 2 4 1 4 3 1h-3l1 2h6l-3 3-8 4-1-4 1-7h2z" fill="#263C60"/>
<path transform="translate(787,311)" d="m0 0 8 5 1 7-8-1-1-5v-2h-2z" fill="#0D182F"/>
<path transform="translate(1253,296)" d="m0 0h2v14l-2-3-1-2-4 2-11 11v-3l11-11z" fill="#E3EAED"/>
<path transform="translate(1019,256)" d="m0 0h3l1 3 2 1 1-2h2l2 5 1 2h-12l-1-5z" fill="#132A4B"/>
<path transform="translate(990,1007)" d="m0 0h3v6h5v1h-19l3-1v-2l2-2v-1z" fill="#263C60"/>
<path transform="translate(1205,945)" d="m0 0 3 1 1 9-3 4-3-1-1-6 2-6z" fill="#0E1A32"/>
<path transform="translate(1466,754)" d="m0 0h2l-3 10-4 10h-1l-1-11 3-5 3-1z" fill="#162D4F"/>
<path transform="translate(1062,259)" d="m0 0v3l-3 3-1 3 3 1-20-2v-1h6l-1-4 6 1 2 1 6-3z" fill="#DDE6EA"/>
<path transform="translate(1325,1119)" d="m0 0 4 1 1 2 2-2v9l-1 2-8-1 2-5z" fill="#253B5F"/>
<path transform="translate(909,1047)" d="m0 0 9 1 5 2 14 3 8 1v1h-15l-7-2-5-1v-2h-5v-2z" fill="#12294A"/>
<path transform="translate(1251,995)" d="m0 0m-2 1 2 1-1 3-8 5v2h-7l-3-2z" fill="#152C4D"/>
<path transform="translate(1276,855)" d="m0 0h9v2h2l-1 3h-16v-2z" fill="#122848"/>
<path transform="translate(710,813)" d="m0 0 2 4-1 4-5 2-5-1 2-8h6z" fill="#0D182F"/>
<path transform="translate(680,795)" d="m0 0h9l-1 4-12 4-3-1 2-4z" fill="#0D182F"/>
<path transform="translate(780,708)" d="m0 0 3 1-3 2 1 3h-3l-2 6-4 2-1-9 5-3z" fill="#23395D"/>
<path transform="translate(1300,382)" d="m0 0 5 3v2h2l2 3v3l-8 3-4-1 4-4 1-3z" fill="#E5ECEF"/>
<path transform="translate(846,291)" d="m0 0 4 2 2 7-6 3h-3l1-10h2z" fill="#0F1D36"/>
<path transform="translate(609,315)" d="m0 0v3l-6 9-11 16-2 3h-2l2-5 7-10 8-12z" fill="#263C60"/>
<path transform="translate(1246,785)" d="m0 0 4 1-3 5-7 8-5 2-1-2 4-5 6-5z" fill="#0D182F"/>
<path transform="translate(703,619)" d="m0 0h2l2 15 2 21v7h-1l-4-27z" fill="#1A3052"/>
<path transform="translate(871,239)" d="m0 0 1 3v3h2v2l-3 2h-3v2l-5 1-2-5 6-1v-3h2z" fill="#0D182F"/>
<path transform="translate(981,980)" d="m0 0 6 1-3 5 2 3 7 1h3l3 4v2l4 2-5 1-3-6-12-2-3-4z" fill="#DEE6EA"/>
<path transform="translate(1349,766)" d="m0 0 10 2v7l-9-3-3-2v-2l-3-1z" fill="#162D4E"/>
<path transform="translate(1306,404)" d="m0 0 6 1 2 5-10 4-2-4h3v-5z" fill="#253B5F"/>
<path transform="translate(1174,349)" d="m0 0 5 2 17 11 3 2v2l-5-2-15-9v-2l-5-2z" fill="#162C4D"/>
<path transform="translate(684,458)" d="m0 0 9 1-3 9-2 3-3-5z" fill="#263C60"/>
<path transform="translate(1074,951)" d="m0 0 3 1-1 1 4 4-1 5-5-1-3-1 1-8z" fill="#DDE6EA"/>
<path transform="translate(1132,935)" d="m0 0h7v4l-3 1-3-2v2l-4 1v8h-1l-2-10-3-2z" fill="#142B4D"/>
<path transform="translate(1418,323)" d="m0 0 4 2 3 5v3l3 1 1 4 3 4 3 7-3-1-9-14-3-7z" fill="#1C3355"/>
<path transform="translate(989,242)" d="m0 0 1 3v2h2v-3l4-1v5l-3 6h-3l-2 1-2-4 1-5z" fill="#0F1D36"/>
<path transform="translate(1287,176)" d="m0 0 5 1 19 12 10 7-3 1-14-10-7-4-10-6z" fill="#14223E"/>
<path transform="translate(747,875)" d="m0 0 3 1-6 8h-2l-2 6-5 4 2-5 5-10z" fill="#172D4F"/>
<path transform="translate(1309,813)" d="m0 0h3l5 2 7 6-8 2-1-5h-2v-2h-2l-1 3z" fill="#142B4D"/>
<path transform="translate(1246,722)" d="m0 0 3 1v2h2l1-3v7l-4 4-5-1 2-2-1-4v-3z" fill="#243A5E"/>
<path transform="translate(1320,197)" d="m0 0 5 2 18 14v2l-5-2-10-8-8-6z" fill="#101D37"/>
<path transform="translate(1085,988)" d="m0 0h1l1 13 2 1 1 1v5l2 1-8 1z" fill="#253B5E"/>
<path transform="translate(981,955)" d="m0 0h18l3 2-7 1-2 3-5-2h-6z" fill="#1A3052"/>
<path transform="translate(1428,813)" d="m0 0 5 1-1 7-2 2h-3l-2-3-2 1 2-5z" fill="#13294A"/>
<path transform="translate(641,790)" d="m0 0 1 4 2 5 3 1h7v1l-6 1h-8l-1 2-1-6-1-4z" fill="#D9E3E7"/>
<path transform="translate(1360,760)" d="m0 0h22v1l-19 3-5 1-3-1h2l1-3z" fill="#22385C"/>
<path transform="translate(621,586)" d="m0 0 4 1 1 5-3 3-4 1-2-3 1-4z" fill="#0D182F"/>
<path transform="translate(822,136)" d="m0 0 4 1-29 12-7 2 3-3 21-9z" fill="#263C60"/>
<path transform="translate(963,991)" d="m0 0h1l1 13h7l4-1 1 2-2 2-1 2-2-1-5-1-3-1v-2l-4-1h2z" fill="#2C4164"/>
<path transform="translate(1034,953)" d="m0 0h9l5 1v1l-6 1v-2h-3v3l2 1-2 1-9-1-2-1-2-3z" fill="#1E3558"/>
<path transform="translate(540,695)" d="m0 0 2 2 1 7h2l3 4v6l-3 4-5-20z" fill="#172E50"/>
<path transform="translate(560,437)" d="m0 0 3 1-1 8-3 7h-2l-1-5z" fill="#243B5E"/>
<path transform="translate(1271,371)" d="m0 0 4 1 5 1v2h3l-1 4-4 2-7-8z" fill="#132A4B"/>
<path transform="translate(663,233)" d="m0 0m-1 1 1 3-10 9-16 15v-3l13-13 9-8z" fill="#1B3254"/>
<path transform="translate(750,171)" d="m0 0 2 1-12 8-8 5-2-1 9-8 7-4z" fill="#152C4E"/>
<path transform="translate(605,307)" d="m0 0 2 2-1 3-4 5-4 6h-4l2-5 7-9z" fill="#263C60"/>
<path transform="translate(918,271)" d="m0 0 7 3v2l-3 1h-11l2-5z" fill="#101E39"/>
<path transform="translate(1068,201)" d="m0 0 11 1 8 1v1l-11 1-3 3v-2l-6-1-3-3z" fill="#243A5E"/>
<path transform="translate(596,811)" d="m0 0h2l9 17 3 5-1 3-4-4-6-14-3-4z" fill="#12213B"/>
<path transform="translate(1305,619)" d="m0 0h2v14l-1 1-2 9h-1v-13z" fill="#0F1C34"/>
<path transform="translate(720,312)" d="m0 0h3v2h-3l-2 5 2 1-1 3-9-2 6-7z" fill="#263C60"/>
<path transform="translate(1303,960)" d="m0 0h2l-2 4v3l-5 2-2 4h-2v2l-4 2 2-4 3-3h2l1-6z" fill="#0E1A32"/>
<path transform="translate(721,826)" d="m0 0 3 1-12 4-12 6h-3l5-6h4l1-2z" fill="#DDE6EA"/>
<path transform="translate(1496,1133)" d="m0 0h1l-1 12v16l2 9 1 4-2 3-3-15v-18z" fill="#263C60"/>
<path transform="translate(924,983)" d="m0 0 2 2 1 6-5 4-3-5 1-4 3-1z" fill="#132A4B"/>
<path transform="translate(1063,952)" d="m0 0h9l1 3-3 7-1-2-3-1-1-5z" fill="#142949"/>
<path transform="translate(1352,762)" d="m0 0h5v2l-3 2-10 1-4-1v-2l2-1z" fill="#0D1830"/>
<path transform="translate(762,359)" d="m0 0 1 2 2 1-6 6-4-1-1-6 6-1z" fill="#132A4C"/>
<path transform="translate(504,264)" d="m0 0h6l1 1v5l-1 1-7-1-2-4z" fill="#13294A"/>
<path transform="translate(1403,1200)" d="m0 0 10 3 2 5-5 1-5-4v-3h-2z" fill="#263C60"/>
<path transform="translate(1352,727)" d="m0 0 3 3 6 1v4l-5 1-4 2-2-6z" fill="#193052"/>
<path transform="translate(909,671)" d="m0 0 4 5 7 11 5 6 1 4-5-5-8-11-4-7z" fill="#111F39"/>
<path transform="translate(983,636)" d="m0 0 2 1 3 17 3 7-1 3-4-8-4-16z" fill="#DDE6EA"/>
<path transform="translate(663,409)" d="m0 0 9 3 4 2 1 3-5-1-5-2 1 3-5-2z" fill="#12223D"/>
<path transform="translate(1009,255)" d="m0 0 7 3 2 1 1-2v9l-4-1-5 1 2-4v-4l-7-1z" fill="#DDE6EA"/>
<path transform="translate(903,226)" d="m0 0 8 1v2l-3 1 2 5-4 1-1 4z" fill="#2C4265"/>
<path transform="translate(694,781)" d="m0 0h3l-1 9-4 1-3-5z" fill="#0D1A32"/>
<path transform="translate(707,377)" d="m0 0 5 2 13 10-4 1-8-6-6-5z" fill="#162D4E"/>
<path transform="translate(1056,322)" d="m0 0 19 1 7 2 5 2-4 1-27-5z" fill="#12294A"/>
<path transform="translate(838,259)" d="m0 0 3 2 3-1v5h-2v5h-3l1-3-5-1z" fill="#263C60"/>
<path transform="translate(1183,253)" d="m0 0h2l-2 4-6 11-2 7h-1v-9l6-10z" fill="#253B5F"/>
<path transform="translate(644,766)" d="m0 0 2 2-10 10-3-1 2-4 4-5z" fill="#132A4B"/>
<path transform="translate(1392,753)" d="m0 0h12v3l-15 3v-4h3z" fill="#193052"/>
<path transform="translate(1275,1096)" d="m0 0h9l10 2 4 3-6-1-16-1z" fill="#263C60"/>
<path transform="translate(955,952)" d="m0 0 16 2v1l-7 1-1 3v-2h-10z" fill="#DDE6EA"/>
<path transform="translate(626,594)" d="m0 0 1 3 2 1 1 3-3 2-6-1 1-5z" fill="#263C60"/>
<path transform="translate(1064,264)" d="m0 0h2v4l7-1 5 2-1 2-11-1-5-1 1-4z" fill="#162D4E"/>
<path transform="translate(1846,1163)" d="m0 0h11l16 1v1l-16 1h-15z" fill="#263C60"/>
<path transform="translate(1594,1087)" d="m0 0 5 1 11 7 7 7h-3l-7-6-4-1-5-5z" fill="#253B5F"/>
<path transform="translate(1386,745)" d="m0 0 7 2 8 2h7v3l-12-1-10-4z" fill="#708198"/>
<path transform="translate(568,344)" d="m0 0 4 1-3 10-5 1v-6h2v-2h2z" fill="#253B5F"/>
<path transform="translate(317,306)" d="m0 0 7 6 1 4-4 2-3-1z" fill="#263C60"/>
<path transform="translate(1185,238)" d="m0 0h11v1l-18 4-4 3-3-1 3-3z" fill="#263C60"/>
<path transform="translate(507,231)" d="m0 0h6l-1 7-2 2h-3l-1-5z" fill="#12294A"/>
<path transform="translate(245,189)" d="m0 0h2l1 12h-3v-2l-3-1-1-4z" fill="#12294A"/>
<path transform="translate(1373,895)" d="m0 0 1 3h-2l1 4h-3l-1 2-5 3-5 4 2-4 8-9 1-2z" fill="#0F1D36"/>
<path transform="translate(694,772)" d="m0 0 4 4 2 5-6 1-4 3-2-1 5-6z" fill="#253B5F"/>
<path transform="translate(1299,671)" d="m0 0h3l-2 10-2 7h-1v-5l-3-1 2-4h3l-1-6z" fill="#263C60"/>
<path transform="translate(680,357)" d="m0 0 1 3 1 5 6 2-2 2-10-2 3-9z" fill="#132A4B"/>
<path transform="translate(813,309)" d="m0 0 4 2-3 5-6 1-4-1 4-4h3z" fill="#DDE6EA"/>
<path transform="translate(840,356)" d="m0 0 2 1-5 4-5 2v2l-3 2h-3l-1 3-5 3-2-1 9-7z" fill="#1C3255"/>
<path transform="translate(1140,331)" d="m0 0 12 5 2 2h-3-6l-7-4z" fill="#243A5E"/>
<path transform="translate(434,304)" d="m0 0h2l-2 6-3 2-4-2-1 4v-6l4-3z" fill="#263C60"/>
<path transform="translate(645,272)" d="m0 0 4 1-1 4-8 8-1-3h2l1-7z" fill="#203659"/>
<path transform="translate(886,1041)" d="m0 0 8 1 15 4v1l-7 1-5-2-7-1-1-3z" fill="#1C3355"/>
<path transform="translate(1079,721)" d="m0 0 3 1-8 5h-3v2l-4 1-1 2h-6v-2l14-6z" fill="#F2F5F7"/>
<path transform="translate(1395,690)" d="m0 0h4l-2 9h-2v-3l-4-1-2-3z" fill="#263C60"/>
<path transform="translate(1353,461)" d="m0 0h6l-1 4-7 3h-5l1-3 3-1z" fill="#101D37"/>
<path transform="translate(204,305)" d="m0 0 3 1 6 4-1 5-3-1-1-4h-6z" fill="#263C60"/>
<path transform="translate(604,293)" d="m0 0 3 1 1 4-2 3h-2v2l-4 1-1-4 3-4h2z" fill="#263C60"/>
<path transform="translate(966,261)" d="m0 0 3 1 1 7h-11v-1l6-1-2-2v-3z" fill="#162D4E"/>
<path transform="translate(1306,832)" d="m0 0 7 2 7 5-1 2-4-1-6-3-3-3z" fill="#FEFEFE"/>
<path transform="translate(700,376)" d="m0 0 9 6 6 5-4 1-12-10z" fill="#10223F"/>
<path transform="translate(997,242)" d="m0 0 9 1-1 2h-3l1 3 7 1v1h-8l-6-3z" fill="#263C60"/>
<path transform="translate(954,200)" d="m0 0h11l1 4-1 2-5-2-5-1z" fill="#182F51"/>
<path transform="translate(1337,971)" d="m0 0 2 1-7 8-7 7h-2l2-4 6-6h2l2-4z" fill="#0D182F"/>
<path transform="translate(674,834)" d="m0 0h5l1 3-2 7-1-2-5-1z" fill="#253B5F"/>
<path transform="translate(1352,805)" d="m0 0h2l3 3 2 4h2l2 8-12-12z" fill="#172D4F"/>
<path transform="translate(1157,262)" d="m0 0 3 3h3l1 4-3 4-1-3-3 1-2 4 1-9z" fill="#263C60"/>
<path transform="translate(1385,256)" d="m0 0 4 2 14 15-1 2-17-17z" fill="#263C60"/>
<path transform="translate(894,935)" d="m0 0 5 1 9 3-3 1-1 3-9-3 2-2z" fill="#263C60"/>
<path transform="translate(1423,830)" d="m0 0 2 4-4 5-4-1v-3h2l1-4z" fill="#12294A"/>
<path transform="translate(1307,512)" d="m0 0 2 3 2 11-3-1-4-9v-2h3z" fill="#253B5F"/>
<path transform="translate(666,400)" d="m0 0h7l-3 3-16 1 1-3z" fill="#263C60"/>
<path transform="translate(832,922)" d="m0 0 1 3-4 7-4 1 1-7z" fill="#0F1C34"/>
<path transform="translate(742,855)" d="m0 0h1l1 7 4-2-6 8-5 5v-2l-4-2 6-2 2-3z" fill="#DDE6EA"/>
<path transform="translate(1384,679)" d="m0 0 8 2-4 1 1 7-2 2-2-2-2-6-1-2h2z" fill="#DDE6EA"/>
<path transform="translate(159,304)" d="m0 0 1 2-2 5h-6l-1 4v-6l5-4z" fill="#253B5E"/>
<path transform="translate(908,223)" d="m0 0 7 1 1 5-4 3-1-5-3-1z" fill="#0D1830"/>
<path transform="translate(1249,1150)" d="m0 0 2 4 2 19-4-1z" fill="#263C60"/>
<path transform="translate(1098,946)" d="m0 0 3 1 1 4-6 1-2 3-1-6-2-1z" fill="#263C60"/>
<path transform="translate(1365,726)" d="m0 0 13 6-2 1-1 2-7-3-3-3z" fill="#21375B"/>
<path transform="translate(704,432)" d="m0 0 3 2-5 8-5-5 6-2z" fill="#253B5E"/>
<path transform="translate(733,298)" d="m0 0 2 1-5 4-1 2h-2l-2 4-2 3-6 2 6-7 8-8z" fill="#172E50"/>
<path transform="translate(516,204)" d="m0 0 5 1 2 5v5l-4-1z" fill="#142B4D"/>
<path transform="translate(1346,1158)" d="m0 0 1 3-3 5-7 3-2 1 2-4 5-4 1-3z" fill="#263C60"/>
<path transform="translate(1373,761)" d="m0 0h8v1l-17 3-3 3-5-2 4-2z" fill="#DDE6EA"/>
<path transform="translate(926,696)" d="m0 0 7 6 11 9v3l-11-9-7-7z" fill="#0F1B34"/>
<path transform="translate(1495,536)" d="m0 0h1l1 9-2 6h-1v-5h-3v-7h1v5h2z" fill="#DFE7EB"/>
<path transform="translate(796,319)" d="m0 0h5l1 7-2 1-7-3 3-1-1-3z" fill="#12294A"/>
<path transform="translate(953,218)" d="m0 0 1 2h2l2 4-1 8h-2l-2-6z" fill="#142B4C"/>
<path transform="translate(322,183)" d="m0 0h23l-3 2-15 1-5-2z" fill="#DDE6EA"/>
<path transform="translate(1051,965)" d="m0 0h1l1 16h-7l4-1-2-8 3 1z" fill="#DDE6EA"/>
<path transform="translate(1437,887)" d="m0 0h2l-2 5-5 6h-2l3-9z" fill="#152C4D"/>
<path transform="translate(800,142)" d="m0 0 3 1-3 3-7 3-4-1 8-5z" fill="#10213D"/>
<path transform="translate(857,136)" d="m0 0h6v2l-14 4-4-1h3v-2z" fill="#0E1D37"/>
<path transform="translate(1284,1152)" d="m0 0h10l-1 4h-10z" fill="#193052"/>
<path transform="translate(1285,724)" d="m0 0h2l-1 6-4 7h-1v-7z" fill="#0D182F"/>
<path transform="translate(1289,369)" d="m0 0h6v6l-1-2-7 1-1 2v-5z" fill="#DDE6EA"/>
<path transform="translate(747,363)" d="m0 0h2v2h3l2 7-4 1-3-7z" fill="#12223D"/>
<path transform="translate(1053,201)" d="m0 0h8l-1 4-8 2z" fill="#0E1931"/>
<path transform="translate(1285,195)" d="m0 0 4 1 2 6-2 1-9-6v-1z" fill="#142A4B"/>
<path transform="translate(811,137)" d="m0 0h4l-1 3-9 4-3-1v-2z" fill="#122441"/>
<path transform="translate(1115,1073)" d="m0 0m-5 1h5v2l-11 2h-9v-1z" fill="#263C60"/>
<path transform="translate(1039,954)" d="m0 0 8 1-1 5h-6z" fill="#12294A"/>
<path transform="translate(851,937)" d="m0 0 3 4-1 3-2-3-6 8-2 3v-6z" fill="#263C60"/>
<path transform="translate(857,927)" d="m0 0 2 1v8l-2 5h-2l1-11z" fill="#0D182F"/>
<path transform="translate(1193,923)" d="m0 0 2 1 1 7-8-3 1-3z" fill="#1C2B47"/>
<path transform="translate(1286,834)" d="m0 0h4l2 7h-2v-2l-5 1-1-5z" fill="#0D1830"/>
<path transform="translate(692,766)" d="m0 0 3 3-1 9-6 7-2-1 6-8z" fill="#DDE6EA"/>
<path transform="translate(1314,417)" d="m0 0 4 5 11-1-4 3h-8l-6-2-1 2-1-4h4z" fill="#DDE6EA"/>
<path transform="translate(691,365)" d="m0 0 4 1 9 8-3 1-9-7z" fill="#152B4C"/>
<path transform="translate(679,350)" d="m0 0h2l-1 4-4 4-3 5-2 3-2-1 3-6z" fill="#132542"/>
<path transform="translate(909,991)" d="m0 0 4 1-1 8 4 1h-5l-2-2z" fill="#182F51"/>
<path transform="translate(920,971)" d="m0 0 2 4 3 8-2 3h-2l-1-4z" fill="#1E3457"/>
<path transform="translate(1227,950)" d="m0 0 2 1v6l-2 2h-3v-8z" fill="#13233F"/>
<path transform="translate(1096,951)" d="m0 0h6l4 6h-3l-7-2-1-3z" fill="#DDE6EA"/>
<path transform="translate(812,947)" d="m0 0 4 1-2 4-3 3-3-1 1-4z" fill="#263C60"/>
<path transform="translate(681,816)" d="m0 0h3l-1 5-9 3 6-7z" fill="#0D182F"/>
<path transform="translate(1326,787)" d="m0 0 3 1-2 1-2 4-3-2-7 3v-3l6-3z" fill="#253B5F"/>
<path transform="translate(770,763)" d="m0 0 4 4 7 9-1 2-5-5-5-6z" fill="#1A3153"/>
<path transform="translate(614,752)" d="m0 0 10 1-5 5-2 3-2-5z" fill="#243A5E"/>
<path transform="translate(1335,359)" d="m0 0 3 1-3 9-2 1-1-8 3-1z" fill="#243A5E"/>
<path transform="translate(603,356)" d="m0 0 1 3h-2v5l-4 3h-3l2-5 4-4h2z" fill="#0F1C34"/>
<path transform="translate(759 1e3)" d="m0 0h5l7 4 3 2-1 3-14-8z" fill="#172D4F"/>
<path transform="translate(1395,870)" d="m0 0 2 3-3 4h-2l-1-2-4 2 2-4 2-2z" fill="#132848"/>
<path transform="translate(574,796)" d="m0 0h3l5 11 1 6-3-4z" fill="#182F51"/>
<path transform="translate(787,785)" d="m0 0 7 6 8 8-1 2-11-10-3-4z" fill="#1E3457"/>
<path transform="translate(1e3 245)" d="m0 0h7l3 1-1 3h-8z" fill="#0E1C35"/>
<path transform="translate(818,150)" d="m0 0h5l-4 3-10 4-3-1 2-2z" fill="#0E1D37"/>
<path transform="translate(929,981)" d="m0 0 5 1-6 8-3-4v-3h4z" fill="#243A5E"/>
<path transform="translate(724,837)" d="m0 0h8l3 1v2h-9l-7 2 2-4z" fill="#172E50"/>
<path transform="translate(568,340)" d="m0 0 3 1-1 3h-2v4h-2v2l-4 2 2-5z" fill="#162D4F"/>
<path transform="translate(841,179)" d="m0 0 3 1-19 8-3-1 2-2z" fill="#263C60"/>
<path transform="translate(1120,938)" d="m0 0 4 1 1 4-2 4-4-4z" fill="#182E50"/>
<path transform="translate(1302,399)" d="m0 0h4v3l-6 3-3-1-1-3h3z" fill="#263C60"/>
<path transform="translate(1169,349)" d="m0 0 5 1 5 3v2l5 2 2 3-5-2-12-8z" fill="#263C60"/>
<path transform="translate(603,293)" d="m0 0 1 3h-2l-2 4-1 3-5 1 2-4 5-6z" fill="#192F52"/>
<path transform="translate(858,264)" d="m0 0 2 1 2 4-8-2-1 6-2-2v-5z" fill="#DDE6EA"/>
<path transform="translate(842,253)" d="m0 0 3 1v3h-2l1 3-4 2-2-4z" fill="#132A4B"/>
<path transform="translate(880,1040)" d="m0 0h6v2h3v3l-9-1v-3z" fill="#132A4B"/>
<path transform="translate(745,850)" d="m0 0h1l2 10-5 3v-8z" fill="#263C60"/>
<path transform="translate(610,836)" d="m0 0h2l8 13v2h-2v-2l-3-1-3-7z" fill="#13223D"/>
<path transform="translate(728,831)" d="m0 0h9l5 4-3 2-5-1-1-2 5 1v-2l-10-1z" fill="#152C4D"/>
<path transform="translate(659,815)" d="m0 0 2 1-6 7-4-2 1-3z" fill="#263C60"/>
<path transform="translate(645,760)" d="m0 0 8 3v1l-7 2-6 2v-5l1 2 4-3z" fill="#263C60"/>
<path transform="translate(1383,742)" d="m0 0 1 2 3 1-1 2 4 1v2l-13-1v-1l7-1z" fill="#253B5F"/>
<path transform="translate(1337,438)" d="m0 0 2 1-6 7 2 2-5 2-1-4z" fill="#263C60"/>
<path transform="translate(682,351)" d="m0 0 3 1 4 7v2l-5-2-2-4z" fill="#162C4C"/>
<path transform="translate(847,226)" d="m0 0 4 1-3 1-1 3-5 2-1-2 1-3z" fill="#193052"/>
<path transform="translate(678,220)" d="m0 0m-1 1m-1 1m-1 1m-1 1m-2 1h2l-2 4-8 7v-3z" fill="#132A4B"/>
<path transform="translate(765,161)" d="m0 0h5l-4 2v2l-12 6-2-1 10-6h2z" fill="#22385B"/>
<path transform="translate(652,390)" d="m0 0 4 1-2 3-8 3v-3z" fill="#263C60"/>
<path transform="translate(823,290)" d="m0 0 2 1-1 6-3 1-1 4v-8z" fill="#263C60"/>
<path transform="translate(845,261)" d="m0 0h2l2 3-1 5-4 1-1-3 2-4z" fill="#0D182F"/>
<path transform="translate(989,242)" d="m0 0 1 3v2l2 1-3 7-3-4 1-5z" fill="#14294A"/>
<path transform="translate(1287,1158)" d="m0 0 4 1-1 4-1 2-4-2v-4z" fill="#142A4C"/>
<path transform="translate(909,1047)" d="m0 0 9 1 6 3-1 2-5-1v-2h-5v-2z" fill="#182F51"/>
<path transform="translate(1016,996)" d="m0 0 3 2h-2l1 7v4h-2l-1-3v-8z" fill="#263C60"/>
<path transform="translate(632,775)" d="m0 0 1 2 2 1h-2v3l-5 2-1-4z" fill="#263C60"/>
<path transform="translate(1513,478)" d="m0 0 3 1 2 8v7l-2-3-3-12z" fill="#182E50"/>
<path transform="translate(1307,415)" d="m0 0h8l-2 6-4-1z" fill="#263C60"/>
<path transform="translate(1368,399)" d="m0 0 1 3-6 4h-4l2-4z" fill="#21375A"/>
<path transform="translate(727,309)" d="m0 0h19v1l-13 1-5 1-1 2-1-4z" fill="#DDE6EA"/>
<path transform="translate(1305,187)" d="m0 0 4 1 12 8-3 1-13-9z" fill="#12213C"/>
<path transform="translate(851,923)" d="m0 0 2 4-1 5h-3v-8z" fill="#0D182F"/>
<path transform="translate(1323,368)" d="m0 0 2 1v4h-2v2h-3l-1 2 1-6z" fill="#0F1C35"/>
<path transform="translate(1255,291)" d="m0 0 2 1-1 18h-1v-14h-2z" fill="#263C60"/>
<path transform="translate(981,259)" d="m0 0h1v6l13 1v1h-15v-7z" fill="#DDE6EA"/>
<path transform="translate(1006,260)" d="m0 0 5 1-3 5h-4l1-4z" fill="#DDE6EA"/>
<path transform="translate(868,250)" d="m0 0 5 1v6l1 2-4-2v-3h-3z" fill="#263C60"/>
<path transform="translate(800,948)" d="m0 0 1 2-2 4 1 3-5-1 2-6z" fill="#263C60"/>
<path transform="translate(1456,832)" d="m0 0 1 2-7 14h-2l2-5 5-10z" fill="#12294A"/>
<path transform="translate(1489,405)" d="m0 0h2l3 8-1 4-4-7-1-4z" fill="#101E37"/>
<path transform="translate(1470,369)" d="m0 0 3 3 2 4 4 4-2 1-1 2-6-12z" fill="#102443"/>
<path transform="translate(770,276)" d="m0 0v3l-2 3h-2l-1 3h-2l1-5z" fill="#0E1B34"/>
<path transform="translate(792,261)" d="m0 0 5 2v2h2l-1 3h-4z" fill="#0D1A32"/>
<path transform="translate(711,192)" d="m0 0 2 1-1 3-6 5-3-1 4-5z" fill="#0F1C35"/>
<path transform="translate(1336,932)" d="m0 0 2 1-4 5h-2l-1 3-3-2z" fill="#12203A"/>
<path transform="translate(1194,821)" d="m0 0h4l-2 4-2 2h-3l1-5z" fill="#F6F8F9"/>
<path transform="translate(671,757)" d="m0 0 4 1-2 4-3 2-1-5z" fill="#152C4E"/>
<path transform="translate(1358,715)" d="m0 0h8v3l-6 2-2-4z" fill="#DDE6EA"/>
<path transform="translate(877,278)" d="m0 0h6v2l7 2v1h-7l-6-4z" fill="#20375A"/>
<path transform="translate(1413,1163)" d="m0 0 5 2 3 1 1 4h-2l-1 2-4-6z" fill="#22395C"/>
<path transform="translate(1275,1021)" d="m0 0 5 1-4 4-4-1 1-3z" fill="#263C60"/>
<path transform="translate(843,914)" d="m0 0 7 3-2 1-1 3-3-3-5-1 1-2z" fill="#243A5E"/>
<path transform="translate(1242,881)" d="m0 0h1l1 7h2l-1 6-5-5z" fill="#263C60"/>
<path transform="translate(1359,731)" d="m0 0 2 1v3l-5 1-4 2 2-6z" fill="#263C60"/>
<path transform="translate(1479,710)" d="m0 0 2 1-1 8-2 7h-1v-8l1-5z" fill="#263C60"/>
<path transform="translate(1409,583)" d="m0 0 3 1v6h-6z" fill="#253B5F"/>
<path transform="translate(1322,438)" d="m0 0h6l1 4h-9v-3z" fill="#263C60"/>
<path transform="translate(1341,346)" d="m0 0 5 1 1 1v5l-4 2v-4l2-1-2-1v-2z" fill="#243A5E"/>
<path transform="translate(692,336)" d="m0 0 1 2 3 1v4l-4-1-2-1z" fill="#DDE6EA"/>
<path transform="translate(994,260)" d="m0 0h2l2 5-7 1 1-4h2z" fill="#172E4F"/>
<path transform="translate(864,231)" d="m0 0 3 1-2 1v2l4-1-2 4h-5v-3h2z" fill="#0D1A33"/>
</svg>
